<svg id="レイヤー_1" data-name="レイヤー 1" xmlns="http://www.w3.org/2000/svg" width="848" height="652" viewBox="0 0 848 652"><path d="M279.89,148.22s-3.94,1.84,2.8,2.46c8.18.75,12.35.64,21.36-.73a41.41,41.41,0,0,0,5.68,2.22C289.54,159.11,264,151.77,279.89,148.22Zm-2.47-9.05s-4.42,2.62,2.33,3.18a103.34,103.34,0,0,0,27.56-1.06,13,13,0,0,0,4.24,2.08C287.14,149.09,260,143.82,277.42,139.17Z" fill="#3174b9" fill-rule="evenodd"/><path d="M298.22,123.82c5,4.59-1.31,8.72-1.31,8.72s12.63-5.23,6.83-11.77c-5.41-6.11-9.57-9.14,12.92-19.59C316.66,101.18,281.36,108.24,298.22,123.82Z" fill="#ca3132" fill-rule="evenodd"/><path d="M324.92,154.92s2.92,1.92-3.21,3.41c-11.65,2.83-48.5,3.69-58.74.12-3.68-1.29,3.22-3.07,5.39-3.44a16.81,16.81,0,0,1,3.56-.32c-4.09-2.31-26.45,4.53-11.36,6.5,41.16,5.35,75-2.41,64.36-6.27Zm-43.14-25.13s-18.74,3.57-6.63,4.87c5.11.55,15.3.42,24.79-.22,7.76-.52,15.55-1.63,15.55-1.63a36.71,36.71,0,0,0-4.72,2c-19,4-55.8,2.14-45.22-2a43.14,43.14,0,0,1,16.23-3.08Zm33.63,15.07c19.35-8.06,10.4-15.81,4.15-14.76a16.13,16.13,0,0,0-2.21.48,3.46,3.46,0,0,1,1.65-1c12.36-3.48,21.86,10.27-4,15.72A1.52,1.52,0,0,0,315.41,144.86Z" fill="#3174b9" fill-rule="evenodd"/><path d="M303.74,84.29s10.72,8.59-10.16,21.8c-16.74,10.6-3.82,16.65,0,23.55-9.77-7.07-16.94-13.29-12.13-19.08,7.06-8.5,26.63-12.62,22.3-26.27Z" fill="#ca3132" fill-rule="evenodd"/><path d="M283.69,166.7c18.57,1,47.09-.53,47.76-7.57,0,0-1.29,2.67-15.34,4.78a189.3,189.3,0,0,1-47,.58S271.48,166.07,283.69,166.7Z" fill="#3174b9" fill-rule="evenodd"/><path d="M330.6,179.33H330v-.25h1.52v.25H331v1.27h-.39Zm3,.07h0l-.56,1.2h-.26l-.56-1.2h0v1.2h-.38v-1.52h.55l.52,1.07.52-1.07H334v1.52h-.36v-1.2Zm-53,14.21a9.52,9.52,0,0,1-5.26,1.91c-2.37,0-3.65-1.15-3.65-3,0-2,1.37-3.42,6.88-3.42h2v4.48Zm4.84,4.38V184.45c0-3.45-2.46-5.74-8.4-5.74a26.92,26.92,0,0,0-9,1.56l.71,2.4a25.52,25.52,0,0,1,6.92-1.1c3.42,0,4.89,1.1,4.89,3.38v1.71h-1.71c-8.3,0-12,2.58-12,6.46,0,3.35,2.47,5.25,7.11,5.25a12.16,12.16,0,0,0,7.3-2.44l.38,2.06Zm16.13,0h-6l-7.26-18.93h5.27l4.5,11.63,1,3.49a61.56,61.56,0,0,0,4.69-15.12h5.12A66.24,66.24,0,0,1,301.61,198Zm23.13-4.38a9.58,9.58,0,0,1-5.27,1.91c-2.37,0-3.65-1.15-3.65-3,0-2,1.38-3.42,6.88-3.42h2Zm4.83,4.38V184.45c0-3.45-2.46-5.74-8.39-5.74a26.87,26.87,0,0,0-9,1.56l.71,2.4a25.46,25.46,0,0,1,6.92-1.1c3.42,0,4.89,1.1,4.89,3.38v1.71H323c-8.3,0-12,2.58-12,6.46,0,3.35,2.46,5.25,7.11,5.25a12.19,12.19,0,0,0,7.3-2.44l.38,2.06Zm-68,3.21a12.81,12.81,0,0,1-6,3.61l-2.39-2.25a9.47,9.47,0,0,0,4.19-3.14c.63-1,.9-2.34.9-5.48V172.33h5.14v21.31C263.39,197.85,263,199.55,261.59,201.2Z" fill="#ca3132" fill-rule="evenodd"/><path d="M631.45,89.1H832.52V196.26H631.45Z" fill="none"/><path d="M795.59,142.26a23.33,23.33,0,0,0-7.62.85c-.59.18-1.53.18-1.61.76.32.24.35.63.63,1a7.92,7.92,0,0,0,2,1.85c.83.48,1.65,1,2.52,1.38,1.53.73,3.26,1.15,4.75,1.88.87.42,1.73,1,2.6,1.42.43.24.7.63,1.25.78v-.09c-.27-.27-.35-.66-.63-1l-1.18-.87a17.19,17.19,0,0,0-4.08-3.05c-1.26-.67-4-1.57-4.52-2.69l-.08-.06a18.75,18.75,0,0,0,2.71-.49c1.34-.27,2.56-.21,3.93-.48.63-.12,1.26-.27,1.89-.42v-.27c-.71-.55-1.22-1.27-2-1.78a53.6,53.6,0,0,0-6.48-3.72c-1.22-.61-2.79-1-4.09-1.51-.47-.18-1.26-.27-1.53-.58a11.47,11.47,0,0,1-1.61-2.32c-1.14-1.66-2.24-3.51-3.22-5.26a29,29,0,0,0-2-3.45c-4-5.13-8.45-8.24-15.21-11.29a22.62,22.62,0,0,0-5-1.24l-2.95-.12a17.56,17.56,0,0,1-1.81-1.06c-2.24-1.09-8-3.45-9.66-.34-1.07,2,1.57,3.9,2.47,4.9a14.15,14.15,0,0,1,2,2.27c.28.51.36,1.06.63,1.6a31.39,31.39,0,0,0,2,4.05,14.21,14.21,0,0,0,1.45,1.87c.32.33.86.48,1,1a7.38,7.38,0,0,0-.9,2.26,10.57,10.57,0,0,0,1.14,10.15c.63.76,2.12,2.42,4.12,1.79,1.78-.55,1.38-2.27,1.89-3.78.12-.36,0-.6.28-.84v.06c.55.84,1.1,1.66,1.61,2.5a20.54,20.54,0,0,0,5.11,4.05c.94.54,1.68,1.48,2.86,1.81v-.09h-.07a4.22,4.22,0,0,0-.91-.6,17.19,17.19,0,0,1-2-1.81,39.15,39.15,0,0,1-4.4-5.5c-.63-.94-1.18-2-1.69-2.9-.24-.36-.24-.91-.63-1.09a11.8,11.8,0,0,0-1.88,2.05,13.63,13.63,0,0,0-1.11,4.57l-.15.06c-1.25-.25-1.69-1.24-2.16-2.09a10.24,10.24,0,0,1-.36-8.07c.28-.63,1.46-2.62,1-3.23-.24-.57-1-.9-1.46-1.36a11.6,11.6,0,0,1-1.41-1.93c-.95-1.69-1.42-3.57-2.44-5.26a16.15,16.15,0,0,0-2-2.33,16.13,16.13,0,0,1-2.17-2.35c-.19-.33-.47-.88-.15-1.24.08-.24.24-.33.55-.39.51-.33,2,.09,2.47.27a21.72,21.72,0,0,1,3.89,1.51,7.19,7.19,0,0,0,1.85,1h.83c1.25.21,2.67.06,3.85.33a29.42,29.42,0,0,1,5.66,2.08,31,31,0,0,1,12.25,10.34c.47.69.67,1.33,1.1,2,.83,1.48,1.85,3,2.67,4.44a19.12,19.12,0,0,0,2.8,4.05c.58.64,3,1,4,1.3.78.27,2,.51,2.71.84,1.33.64,2.67,1.36,3.92,2.06.63.36,2.6,1.12,2.71,1.72M755.51,116a7.26,7.26,0,0,0-1.61.15v.06H754a9.86,9.86,0,0,0,1.26,1.24c.31.48.59,1,.9,1.45l.07-.06a1.56,1.56,0,0,0,.83-1.51c-.24-.22-.27-.43-.47-.64s-.74-.45-1.06-.69" fill="#5d87a1"/><path d="M693,175.65h-5.45A178.73,178.73,0,0,0,686,155.72h0l-8.29,19.93h-4.15l-8.23-19.93h0q-.91,9-1.16,19.93h-5a196.33,196.33,0,0,1,2.41-25h6.75L676.09,169h0l7.9-18.37h6.45a210.39,210.39,0,0,1,2.51,25m23.6-18.45q-3.32,13.86-8.77,20.16-4.23,4.84-9.29,4.84a11.65,11.65,0,0,1-3.33-.62v-2.23a21.28,21.28,0,0,0,2.27.11,6.52,6.52,0,0,0,3.8-1,3.4,3.4,0,0,0,1.74-2.74,14.81,14.81,0,0,0-1.35-4.26l-6-14.26H701l4.29,10.66q1.44,3.64,1.2,5.08a56.42,56.42,0,0,0,4.92-15.74Z" fill="#f8981d"/><path d="M789.06,175.65H773.6v-25h5.2v21.93h10.26Zm-19.51.6-6-2.27a10.2,10.2,0,0,0,1.5-1.11q3.81-3.45,3.81-10.19,0-12.41-12.67-12.41-6.23,0-9.69,3.15-3.81,3.45-3.81,10.15t3.38,9.67q3.07,2.77,9.3,2.78a19.56,19.56,0,0,0,4.26-.44l7.78,3.48Zm-19.37-5.61c-1.31-1.63-2-4.24-2-7.85,0-6.29,2.49-9.45,7.47-9.45,2.6,0,4.51.76,5.73,2.26s2,4.23,2,7.78q0,9.52-7.46,9.52c-2.61,0-4.51-.75-5.74-2.26m-9.73-1.92a6.08,6.08,0,0,1-3,5.22,14.35,14.35,0,0,1-8.13,2,19.84,19.84,0,0,1-9.25-2.34l1.39-2.15a19.65,19.65,0,0,0,7,1.48,9,9,0,0,0,4.6-1,3.21,3.21,0,0,0,1.77-2.78c0-1.48-1.35-2.75-3.82-3.82-2.28-1-6.84-3-6.84-3-2.47-1.39-3.71-2.87-3.71-5.32a5.69,5.69,0,0,1,2.77-4.91,12.55,12.55,0,0,1,7.16-1.87,18.2,18.2,0,0,1,8.23,1.85l-1.25,2.15a20.08,20.08,0,0,0-6.26-1,6.74,6.74,0,0,0-3.85.93,2.88,2.88,0,0,0-1.46,2.37c0,1.48,1.38,2.77,3.92,3.85,2.31,1,7,3,7,3,2.53,1.38,3.8,2.86,3.8,5.29" fill="#f8981d"/><path d="M799.33,175.64h.82v-3.06h-1.22l-1,2.09-1.08-2.09h-1.18v3.06h.77v-2.33h0l1.14,2.33h.58l1.13-2.33v2.33Zm-6.55,0h.86V173.1h1.13v-.52H791.6v.52h1.17v2.54Z" fill="#f8981d"/><rect x="435.03" y="151.11" width="138.42" height="1.97" fill="#97928f"/><rect x="435.03" y="151.11" width="138.42" height="1.97" fill="#777f81"/><path d="M494.76,127.4h9.18l-4.85-12.16-8.91,22h-4.06L497,110.84a2.48,2.48,0,0,1,2.12-1.72,2.42,2.42,0,0,1,2.09,1.67l10.88,26.42H508l-1.91-4.9h-9.3l-2-4.9" fill="#dcdde1"/><path d="M536.89,132.3V109.39h-3.45v25.16a3.45,3.45,0,0,0,.51,1.84,1.53,1.53,0,0,0,1.25.81h15.69l2-4.9h-16" fill="#dcdde1"/><path d="M480,128.2c3.35,0,6-4.21,6-9.4s-2.69-9.41-6-9.41H464.89v27.82h3.44v-22.9h11.39c1.6,0,2.89,2,2.89,4.49s-1.29,4.51-2.89,4.51H470l10.28,13.91h5l-6.9-9H480" fill="#dcdde1"/><path d="M443.71,137.21c-4.95,0-8.95-6.22-8.95-13.9s4-13.91,8.95-13.91h10.41c4.95,0,8.93,6.22,8.93,13.91s-4,13.91-8.93,13.91H443.71m10.17-4.9c3.21,0,5.8-4,5.8-9s-2.59-9-5.8-9h-9.94c-3.2,0-5.79,4-5.79,9s2.59,9,5.79,9h9.94" fill="#dcdde1"/><path d="M519.24,137.21c-5,0-9-6.22-9-13.9s4-13.92,9-13.92H531.6l-2,4.91h-10.1c-3.21,0-5.8,4-5.8,9s2.59,9,5.8,9h12.4l-2,4.9H519.24" fill="#dcdde1"/><path d="M561.33,132.31c-2.65,0-4.89-2.77-5.57-6.55h14.7l2-4.9H555.76c.68-3.8,2.92-6.56,5.57-6.56h10.1l2-4.9H561.1c-4.94,0-9,6.22-9,13.91s4,13.9,9,13.9h10.62l2-4.9H561.33" fill="#dcdde1"/><path d="M575.29,112.36c0-1.36.71-2.45,1.59-2.45s1.58,1.09,1.58,2.45-.69,2.45-1.58,2.45-1.59-1.09-1.59-2.45m1.59,3.13c1.12,0,2-1.38,2-3.11s-.89-3.15-2-3.15-2,1.41-2,3.15.9,3.11,2,3.11m-.19-5a1.32,1.32,0,0,1,.6.09c.39.21.42.78.42,1l0,.29a1,1,0,0,1-.27.62l-.1.08.52,1.45h-.51l-.45-1.35h-.3V114h-.45v-3.5h.56m.16,1.58.36-.23.07-.29-.17-.44a.81.81,0,0,0-.42-.06h-.11v1h.27" fill="#dcdde1"/><path d="M494.76,127.4h9.18l-4.85-12.16-8.91,22h-4.06L497,110.84a2.48,2.48,0,0,1,2.12-1.72,2.42,2.42,0,0,1,2.09,1.67l10.88,26.42H508l-1.91-4.9h-9.3l-2-4.9" fill="#e12222"/><path d="M536.89,132.3V109.39h-3.45v25.16a3.45,3.45,0,0,0,.51,1.84,1.53,1.53,0,0,0,1.25.81h15.69l2-4.9h-16" fill="#e12222"/><path d="M480,128.2c3.35,0,6-4.21,6-9.4s-2.69-9.41-6-9.41H464.89v27.82h3.44v-22.9h11.39c1.6,0,2.89,2,2.89,4.49s-1.29,4.51-2.89,4.51H470l10.28,13.91h5l-6.9-9H480" fill="#e12222"/><path d="M443.71,137.21c-4.95,0-8.95-6.22-8.95-13.9s4-13.91,8.95-13.91h10.41c4.95,0,8.93,6.22,8.93,13.91s-4,13.91-8.93,13.91H443.71m10.17-4.9c3.21,0,5.8-4,5.8-9s-2.59-9-5.8-9h-9.94c-3.2,0-5.79,4-5.79,9s2.59,9,5.79,9h9.94" fill="#e12222"/><path d="M519.24,137.21c-5,0-9-6.22-9-13.9s4-13.92,9-13.92H531.6l-2,4.91h-10.1c-3.21,0-5.8,4-5.8,9s2.59,9,5.8,9h12.4l-2,4.9H519.24" fill="#e12222"/><path d="M561.33,132.31c-2.65,0-4.89-2.77-5.57-6.55h14.7l2-4.9H555.76c.68-3.8,2.92-6.56,5.57-6.56h10.1l2-4.9H561.1c-4.94,0-9,6.22-9,13.91s4,13.9,9,13.9h10.62l2-4.9H561.33" fill="#e12222"/><path d="M575.29,112.36c0-1.36.71-2.45,1.59-2.45s1.58,1.09,1.58,2.45-.69,2.45-1.58,2.45-1.59-1.09-1.59-2.45m1.59,3.13c1.12,0,2-1.38,2-3.11s-.89-3.15-2-3.15-2,1.41-2,3.15.9,3.11,2,3.11m-.19-5a1.32,1.32,0,0,1,.6.09c.39.21.42.78.42,1l0,.29a1,1,0,0,1-.27.62l-.1.08.52,1.45h-.51l-.45-1.35h-.3V114h-.45v-3.5h.56m.16,1.58.36-.23.07-.29-.17-.44a.81.81,0,0,0-.42-.06h-.11v1h.27" fill="#e12222"/><path d="M435,166.83h4.18c3.82,0,6.19,2.91,6.19,9.53s-2.37,9.59-6.19,9.52H435v-19m2.64,15.89H439c3.12.05,3.58-3.32,3.58-6.36S442.12,170,439,170h-1.36Z" fill="#221b1d"/><path d="M453.58,185.88l4.44-19h3.12l4.26,19h-2.65l-.88-4H457l-.91,4Zm7.62-7.19-1.67-8.13h0l-1.8,8.13Z" fill="#221b1d"/><polygon points="471.8 166.83 481.74 166.83 481.74 170 478.09 170 478.09 185.88 475.46 185.88 475.46 170 471.8 170 471.8 166.83" fill="#221b1d"/><path d="M488.44,185.88l4.44-19H496l4.25,19h-2.64l-.89-4h-4.86l-.91,4Zm7.63-7.19-1.68-8.13h0l-1.8,8.13Z" fill="#221b1d"/><path d="M508.84,185.88v-19h4.6c2.19-.21,4.43,1.22,4.43,4.94a4.45,4.45,0,0,1-2.16,4.17V176c1.55.5,2.7,2.17,2.7,5a4.61,4.61,0,0,1-4.93,4.93h-4.64m4.69-11.39c1.1,0,1.71-.72,1.71-2.25s-.61-2.23-1.71-2.23h-2.06v4.48Zm0,8.23c1.24,0,2.09-.34,2.09-2.53s-.85-2.54-2.09-2.54h-2.06v5.07Z" fill="#221b1d"/><path d="M526.43,185.88l4.44-19H534l4.26,19h-2.64l-.89-4h-4.85l-.92,4Zm7.63-7.19-1.69-8.13h0l-1.79,8.13Z" fill="#221b1d"/><path d="M553.38,172.27c-.1-1.92-.76-2.87-2-2.87-1,0-2,.78-2,2.45,0,2.06,1.19,2.3,2.24,2.69,1.87.73,4.62,1.55,4.62,5.39,0,4.72-2.65,6.36-5.28,6.36-2.81,0-4.79-1.69-4.7-6.5H549c-.1,2.11.67,3.54,2,3.54a2.28,2.28,0,0,0,2.45-2.53c0-2.25-1.75-2.4-2.8-2.83-1.72-.66-4.06-1.88-4.06-5.26,0-4.34,2.57-6.27,5.09-6.27s4.23,2,4.23,5.83h-2.53" fill="#221b1d"/><polygon points="565.19 166.83 573.41 166.83 573.41 170 567.82 170 567.82 174.46 573.05 174.46 573.05 177.63 567.82 177.63 567.82 182.72 573.59 182.72 573.59 185.88 565.19 185.88 565.19 166.83" fill="#221b1d"/><path d="M435,166.83h4.18c3.82,0,6.19,2.91,6.19,9.53s-2.37,9.59-6.19,9.52H435v-19m2.64,15.89H439c3.12.05,3.58-3.32,3.58-6.36S442.12,170,439,170h-1.36Z" fill="#221b1d"/><path d="M453.58,185.88l4.44-19h3.12l4.26,19h-2.65l-.88-4H457l-.91,4Zm7.62-7.19-1.67-8.13h0l-1.8,8.13Z" fill="#221b1d"/><polygon points="471.8 166.83 481.74 166.83 481.74 170 478.09 170 478.09 185.88 475.46 185.88 475.46 170 471.8 170 471.8 166.83" fill="#221b1d"/><path d="M488.44,185.88l4.44-19H496l4.25,19h-2.64l-.89-4h-4.86l-.91,4Zm7.63-7.19-1.68-8.13h0l-1.8,8.13Z" fill="#221b1d"/><path d="M508.84,185.88v-19h4.6c2.19-.21,4.43,1.22,4.43,4.94a4.45,4.45,0,0,1-2.16,4.17V176c1.55.5,2.7,2.17,2.7,5a4.61,4.61,0,0,1-4.93,4.93h-4.64m4.69-11.39c1.1,0,1.71-.72,1.71-2.25s-.61-2.23-1.71-2.23h-2.06v4.48Zm0,8.23c1.24,0,2.09-.34,2.09-2.53s-.85-2.54-2.09-2.54h-2.06v5.07Z" fill="#221b1d"/><path d="M526.43,185.88l4.44-19H534l4.26,19h-2.64l-.89-4h-4.85l-.92,4Zm7.63-7.19-1.69-8.13h0l-1.79,8.13Z" fill="#221b1d"/><path d="M553.38,172.27c-.1-1.92-.76-2.87-2-2.87-1,0-2,.78-2,2.45,0,2.06,1.19,2.3,2.24,2.69,1.87.73,4.62,1.55,4.62,5.39,0,4.72-2.65,6.36-5.28,6.36-2.81,0-4.79-1.69-4.7-6.5H549c-.1,2.11.67,3.54,2,3.54a2.28,2.28,0,0,0,2.45-2.53c0-2.25-1.75-2.4-2.8-2.83-1.72-.66-4.06-1.88-4.06-5.26,0-4.34,2.57-6.27,5.09-6.27s4.23,2,4.23,5.83h-2.53" fill="#221b1d"/><polygon points="565.19 166.83 573.41 166.83 573.41 170 567.82 170 567.82 174.46 573.05 174.46 573.05 177.63 567.82 177.63 567.82 182.72 573.59 182.72 573.59 185.88 565.19 185.88 565.19 166.83" fill="#221b1d"/><rect x="400.35" y="7.95" width="438.15" height="241.55" rx="5" fill="none" stroke="#999" stroke-miterlimit="10"/><rect x="206.39" y="5.95" width="184.11" height="637.55" rx="5" fill="none" stroke="#999" stroke-miterlimit="10"/><rect x="3.5" y="5" width="193" height="638.5" rx="5" fill="none" stroke="#999" stroke-miterlimit="10"/><text transform="translate(24.26 44.84) scale(1.12 1)" font-size="31.32" fill="gray" font-family="AllRoundGothic-XLig, All Round Gothic">Frontend</text><text transform="translate(223.01 45.27) scale(1.12 1)" font-size="31.32" fill="gray" font-family="AllRoundGothic-XLig, All Round Gothic">Backend</text><text transform="translate(546.42 45.36) scale(1.12 1)" font-size="31.32" fill="gray" font-family="AllRoundGothic-XLig, All Round Gothic">Database</text><rect x="400.26" y="258.5" width="438.24" height="384" rx="5" fill="none" stroke="#999" stroke-miterlimit="10"/><text transform="translate(581.18 295.96) scale(1.12 1)" font-size="31.32" fill="gray" font-family="AllRoundGothic-XLig, All Round Gothic">Other</text><path d="M442.68,328.36l.64,32.12c19.27-7.22,45.07-14.59,77.57-22.14q31.23-7.24,60.42-12.35Zm143.75,4.39q-28.32,4.08-50.67,9.28Q510.22,348,494.7,353.88c-10.35,3.88-15.13,7-14.41,9.26q1,3,13.17,2.55c4.19-.14,11-.64,20.36-1.51s21.54-2.11,36.39-3.71,26.92-2.63,36.7-3.31l-.48-24.41ZM545.2,374.22c-4.19.12-10,.49-17.32,1.08s-16.55,1.43-27.51,2.59q-25.53,2.78-42.43,4.28c-5.39.48-10.08.81-14.17,1.07l.52,26.05q33.46-4.76,60.45-11,26.47-6.13,40.7-11.75c9.52-3.74,13.93-6.84,13.14-9.29-.67-2.1-5.18-3.1-13.38-3Zm42.22,8.43Q558.13,393,514.6,403.15q-40.55,9.39-70.16,13.73v.21l143.6-2.45-.63-32Zm-137.5,7.81h.2a1.54,1.54,0,0,1,1,.33,1.06,1.06,0,0,1,.28,1.29,1.45,1.45,0,0,1-1.51.72,1.26,1.26,0,0,1-1.19-1.23A1.28,1.28,0,0,1,449.92,390.46Zm5.08-.08a1.37,1.37,0,0,1,.87.24,1.08,1.08,0,0,1,.43,1.34,1.38,1.38,0,0,1-1.35.8,1.44,1.44,0,0,1-1.24-.67,1.13,1.13,0,0,1,.53-1.53,1.64,1.64,0,0,1,.76-.18Zm-4.73,7.75a1.38,1.38,0,0,1,1.34.8,1.18,1.18,0,0,1-.68,1.45,1.59,1.59,0,0,1-1.79-.36,1.06,1.06,0,0,1,.17-1.57,1.6,1.6,0,0,1,1-.32Zm4.88-.08a1.45,1.45,0,0,1,1.18.54,1.07,1.07,0,0,1-.32,1.57,1.63,1.63,0,0,1-1.94-.14,1.1,1.1,0,0,1,.12-1.69,1.69,1.69,0,0,1,1-.28Z" fill="#809cc8"/><text transform="translate(469.95 432.8) scale(1.14 1)" font-size="16.39" fill="#809cc8" font-family="KozGoPr6N-Regular-83pv-RKSJ-H, Kozuka Gothic Pr6N">Subversion</text><path d="M106.61,94.74,95,114.94,83.55,94.66l-38.4-.12,49.62,87.77L145,94.87Z" fill="#4dba87"/><path d="M106.61,94.74,95,114.94,83.55,94.66,65.12,94.6l29.77,52.67L125,94.8Z" fill="#435466"/><text transform="translate(64.7 203.05) scale(1.06 1)" font-size="20.51" fill="#4dba87" font-family="KozGoPr6N-Regular-83pv-RKSJ-H, Kozuka Gothic Pr6N" letter-spacing="-0.01em">V<tspan x="11.93" y="0" letter-spacing="0.01em">u</tspan><tspan x="24.36" y="0" letter-spacing="0em">e</tspan><tspan x="35.41" y="0" letter-spacing="0.02em">.</tspan><tspan x="40.25" y="0" letter-spacing="0em">j</tspan><tspan x="45.58" y="0" letter-spacing="0.03em">s</tspan></text><path d="M646.15,364.39a2.56,2.56,0,0,1,2.66-1.94c13.43,0,26.86.06,40.29,0a18.14,18.14,0,0,0,4.2-.94,2.79,2.79,0,0,0,.73-.43c-2.27-5.48-1.34-10.46,1.16-15.37a13.3,13.3,0,0,1,5.43,9.41c1.36,0,2.68-.08,4,0a6.16,6.16,0,0,1,3.81,1.69,1.22,1.22,0,0,1,.35,1.5c-1.3,4.08-3.68,6.26-6.87,7a6.43,6.43,0,0,1-1.95.19c-.54,0-.74.27-.93.89a52.43,52.43,0,0,1-6.75,14.9A27.78,27.78,0,0,1,675.94,393c-1.45.37-2.92.53-4.39.8a1.64,1.64,0,0,0-.38.18h-6.4a1.93,1.93,0,0,0-.44-.2c-1.53-.33-3.07-.56-4.58-1-4.3-1.2-7.82-4-10.13-9.12a39.14,39.14,0,0,1-2.89-10.44c-.21-1.46-.39-2.94-.58-4.41Z" fill="#2496ec"/><path d="M821,365.94c-.86,1.7-1.27,1.88-2.79,1.22-3.72-1.61-7.87,1.73-7.79,7.9,0,3.16,0,6.32,0,9.48a2.12,2.12,0,0,1-1.35,2.2,1.58,1.58,0,0,1-1.88-1.2,4,4,0,0,1-.19-1.3q0-9.76,0-19.53c0-1.52.64-2.49,1.65-2.55s1.65.81,1.8,2.35c0,.05,0,.1,0,0a35.72,35.72,0,0,1,4.1-2.06,6.62,6.62,0,0,1,4.59.24,3.06,3.06,0,0,1,1.89,1.94Z" fill="#2496ec"/><path d="M680.92,334.2a7.14,7.14,0,0,1,.14,1c0,1.93,0,3.86,0,5.79,0,.73-.2,1.07-.76,1.07h-5c-.53,0-.8-.28-.79-1,0-1.93,0-3.86,0-5.78a4.44,4.44,0,0,1,.26-1.06Z" fill="#2496ec"/><path d="M726.62,364.8c0-3.67,0-7.15,0-10.63,0-1.62.7-2.59,1.79-2.55s1.67.91,1.67,2.19c0,7.25.07,14.51,0,21.76-.08,5.19-3.36,9.9-7.39,11-4.77,1.3-9.59-2.67-10.83-8.92-1.65-8.29,3.37-16.18,9.79-15.44A8.38,8.38,0,0,1,726.62,364.8Zm0,9.64c0-4.21-2.62-7.69-5.78-7.69S715,370.29,715,374.5s2.66,7.71,5.87,7.69S726.63,378.67,726.62,374.44Z" fill="#2496ec"/><path d="M790.35,376.78a6.58,6.58,0,0,0,4.12,5.21,4.71,4.71,0,0,0,5.22-1.73c.88-1,1.9-1,2.57.06a2.9,2.9,0,0,1-.3,3.43c-2.79,3.17-6,3.95-9.37,2.28s-5.41-4.93-5.92-9.68c-.74-6.83,2.5-12.75,7.56-14,5.43-1.35,10.68,4.22,10.89,11.57.06,2-.58,2.86-2.06,2.86H790.35Zm11-4.65c-.74-3.22-3.24-5.53-5.69-5.35a6.23,6.23,0,0,0-5.3,5.35Z" fill="#2496ec"/><path d="M773.56,371l5.4-4.66,4.39-3.78a1.37,1.37,0,0,1,2,0,2.33,2.33,0,0,1,.73,2.34,3.49,3.49,0,0,1-.91,1.62c-1.94,1.75-3.93,3.42-5.9,5.12-.22.18-.43.39-.71.64l3.27,4.89c1.25,1.88,2.52,3.74,3.77,5.64,1,1.51.5,3.62-.92,4-.72.17-1.25-.25-1.72-.95q-3.26-4.89-6.53-9.75l-.85-1.26c-.6.52-1.19,1-1.71,1.52a1.65,1.65,0,0,0-.28,1c0,2.35,0,4.71,0,7.06a2.32,2.32,0,0,1-1.26,2.32,1.45,1.45,0,0,1-1.9-.92,3.41,3.41,0,0,1-.3-1.35q0-15.2,0-30.38c0-1.45.72-2.42,1.74-2.41s1.73,1,1.73,2.46q0,7.83,0,15.67Z" fill="#2496ec"/><path d="M750.46,374.55c0,6.77-4.14,12.25-9.26,12.25s-9.3-5.48-9.31-12.31,4.16-12.36,9.28-12.35S750.46,367.63,750.46,374.55Zm-3.48-.11c0-4.21-2.63-7.69-5.79-7.69s-5.86,3.55-5.83,7.76,2.64,7.67,5.81,7.68S747,378.7,747,374.44Z" fill="#2496ec"/><path d="M752.2,373.77c.14-4.43,1.87-8.21,5.25-10.37s6.58-1.69,9.6,1.21a5.23,5.23,0,0,1,.45.49,2.91,2.91,0,0,1,.25,3.29,1.45,1.45,0,0,1-2.42.32,6.13,6.13,0,0,0-3.06-1.87c-3.08-.59-6,2.26-6.55,6.43-.5,4,1.57,7.94,4.54,8.73a4.7,4.7,0,0,0,4.9-1.59,1.47,1.47,0,0,1,2.11-.28,2.27,2.27,0,0,1,.75,2.39,4.25,4.25,0,0,1-1,1.81c-3.88,4-9.56,3.06-12.72-2A15.46,15.46,0,0,1,752.2,373.77Z" fill="#2496ec"/><path d="M654.72,360.91c-.85,0-1.69,0-2.54,0-.5,0-.71-.29-.71-.92q0-3,0-6.08c0-.61.24-.88.68-.88h5.15c.48,0,.71.32.71,1v6c0,.68-.24,1-.76,1C656.41,360.89,655.57,360.91,654.72,360.91Z" fill="#2496ec"/><path d="M670.19,360.91c-.87,0-1.74,0-2.61,0-.5,0-.71-.29-.71-.93v-6c0-.7.26-1,.76-1,1.67,0,3.34,0,5,0,.55,0,.78.33.78,1.05,0,2,0,3.93,0,5.89,0,.69-.25,1-.77,1C671.83,360.89,671,360.91,670.19,360.91Z" fill="#2496ec"/><path d="M677.83,360.91c-.85,0-1.7,0-2.54,0-.52,0-.76-.27-.76-1q0-3,0-6c0-.65.25-.93.72-.93h5.08c.51,0,.75.28.74,1,0,2,0,4,0,6,0,.66-.22.92-.7.91C679.52,360.9,678.67,360.91,677.83,360.91Z" fill="#2496ec"/><path d="M662.32,360.91c-.82,0-1.64,0-2.46,0-.52,0-.76-.28-.75-1,0-2,0-3.93,0-5.89,0-.68.2-1,.72-1h5.08c.5,0,.75.28.74,1,0,2,0,3.93,0,5.89,0,.76-.24,1-.79,1C664,360.89,663.17,360.91,662.32,360.91Z" fill="#2496ec"/><path d="M685.5,360.91c-.82,0-1.64,0-2.47,0-.51,0-.77-.25-.77-.95,0-2,0-4,0-6,0-.63.22-1,.7-1h5.15c.48,0,.68.32.68,1,0,2,0,4,0,6,0,.73-.26.95-.76.94C687.19,360.89,686.35,360.91,685.5,360.91Z" fill="#2496ec"/><path d="M662.35,351.46c-.84,0-1.69,0-2.54,0-.5,0-.7-.28-.7-.93v-6c0-.66.24-.9.72-.9,1.7,0,3.4,0,5.09,0,.53,0,.74.27.73,1,0,2,0,3.93,0,5.9,0,.72-.24,1-.75.94C664.05,351.44,663.2,351.46,662.35,351.46Z" fill="#2496ec"/><path d="M677.78,343.65c.85,0,1.7,0,2.55,0,.51,0,.75.22.75.95,0,2,0,3.93,0,5.9,0,.7-.21,1-.73,1-1.7,0-3.4,0-5.09,0-.55,0-.73-.32-.73-1,0-1.94,0-3.87,0-5.81,0-.74.22-1.05.78-1C676.13,343.67,677,343.65,677.78,343.65Z" fill="#2496ec"/><path d="M670.13,343.65c.84,0,1.69,0,2.54,0,.47,0,.73.19.73.88,0,2,0,4.05,0,6.08,0,.61-.2.87-.66.86-1.72,0-3.44,0-5.16,0-.49,0-.7-.28-.7-.92v-6c0-.65.23-.92.72-.91C668.43,343.67,669.28,343.65,670.13,343.65Z" fill="#2496ec"/><path d="M815.84,385.07a1.44,1.44,0,0,1-1.23,1.57c-.71,0-1.25-.75-1.22-1.67s.6-1.56,1.26-1.53A1.48,1.48,0,0,1,815.84,385.07Zm-.66.81a1.32,1.32,0,0,0,.06-1.73.72.72,0,0,0-1.27,0,1.45,1.45,0,0,0,0,1.73c.37.48.82.68,1.22,0Z" fill="#2496ec"/><path d="M815.19,385.86l-.65-.56-.31.8v-1.76c.42,0,1-.46.81.81a2.47,2.47,0,0,0,.14.73Z" fill="#2496ec"/><path d="M305.36,556.43c.75,1,1.2.94,1.78.71s30.42-9.79,31.33-10.1.62-.59.33-1-10.23-13.24-10.73-14-.74-.59-1.53-.35l-31.63,7.81S304.62,555.41,305.36,556.43Zm35.64-13v-15l-9.84,2.48C333.84,534.27,338,539.59,341,543.38Zm-9.87-31c-.48.11-11.28,2-11.94,2s-.45.44-.18.8l9.5,12.36s11.61-2.73,12.32-2.88l.17,0V523c-2.11-2.53-7.86-9.45-8.36-10.09a1.21,1.21,0,0,0-1.51-.55Z" fill="#f35045"/><path d="M263.22,493c2.34-.1,2.55.4,3.58,1.84l25.8,40.91L325,528.37c-1.79-2.42-9.95-13.39-10.74-14.43s0-1.73,1.46-2,13.85-2.21,14.92-2.35,1.9-.51,3.63,1.47c.89,1,3.89,4.55,6.7,7.87V499.84a16,16,0,0,0-5.25-12,17.73,17.73,0,0,0-12.65-5H263.43a17.73,17.73,0,0,0-12.65,5,16.62,16.62,0,0,0-4.3,6.39c5.85-.46,15.11-1.17,16.74-1.24Z" fill="#f35045"/><path d="M308.29,561.93c-2.74.79-4,1.18-5.75-1.18-1.33-1.76-8.55-14.09-12.08-20.17-6.7,1.67-19,4.7-22.49,5.51s-4.92-1.18-5.49-2.39c-.4-.85-10.51-21.52-17-34.79v47.52a16,16,0,0,0,5.26,12,17.73,17.73,0,0,0,12.65,5H323.1a17.73,17.73,0,0,0,12.65-5,16,16,0,0,0,5.25-12v-5.58C333.68,553.39,310.13,561.4,308.29,561.93Z" fill="#f35045"/><path d="M268.06,541.32l19.52-4.41c.39-.08.64-.29.22-1l-24.22-39.65c-.21-.36-.15-.48-.75-.45s-14,1.17-17.12,1.42a16.83,16.83,0,0,0-.17,1.88c3.17,6.15,21.33,41.68,21.44,42s.11.42,1.08.21Z" fill="#f35045"/><text transform="translate(258.61 601.71) scale(0.95 1)" font-size="24.46" fill="#f35045" font-family="KozGoPr6N-Regular-83pv-RKSJ-H, Kozuka Gothic Pr6N" letter-spacing="0.03em">L<tspan x="13.04" y="0" letter-spacing="0.01em">a</tspan><tspan x="25.89" y="0" letter-spacing="0.02em">r</tspan><tspan x="34.76" y="0" letter-spacing="-0.01em">a</tspan><tspan x="47.27" y="0" letter-spacing="0em">v</tspan><tspan x="59.84" y="0" letter-spacing="0.01em">e</tspan><tspan x="73.36" y="0" letter-spacing="0.03em">l</tspan></text><rect x="189.5" y="74.5" width="430" height="374" rx="5" fill="none" stroke="#ffb0c2" stroke-miterlimit="10" stroke-width="5"/><text transform="translate(196.02 424.1)" font-size="42.16" fill="#ffb0c2" font-family="YuGo-Medium-83pv-RKSJ-H, YuGothic">業務利用</text><path d="M609.78,487.11A60.93,60.93,0,0,0,590.43,605.9c3.06.56,4.18-1.33,4.18-2.94,0-1.45-.05-6.25-.08-11.34-17,3.68-20.63-7.2-20.63-7.2-2.78-7-6.79-8.91-6.79-8.91-5.56-3.79.42-3.71.42-3.71,6.14.43,9.38,6.28,9.38,6.28,5.46,9.32,14.32,6.63,17.82,5.07.54-3.94,2.13-6.63,3.88-8.15-13.6-1.54-27.89-6.77-27.89-30.12A23.51,23.51,0,0,1,577,528.52c-.64-1.54-2.73-7.74.59-16.13,0,0,5.14-1.64,16.84,6.25a58.07,58.07,0,0,1,30.66,0c11.68-7.89,16.82-6.25,16.82-6.25,3.33,8.39,1.23,14.59.6,16.13a23.5,23.5,0,0,1,6.3,16.36c0,23.41-14.32,28.56-28,30.07,2.2,1.89,4.16,5.6,4.16,11.29C625,594.39,625,601,625,603c0,1.63,1.1,3.53,4.2,2.93a60.93,60.93,0,0,0-19.39-118.78Z" fill="#191313" fill-rule="evenodd"/><path d="M571.75,574.62c-.13.3-.61.39-1,.19s-.69-.62-.55-.92.61-.4,1.06-.19.7.62.54.92Zm-.75-.56" fill="#191313"/><path d="M574.23,577.37c-.29.27-.86.15-1.25-.28a.93.93,0,0,1-.18-1.26c.3-.27.86-.15,1.26.28s.48,1,.17,1.26Zm-.58-.62" fill="#191313"/><path d="M576.65,580.88c-.38.26-1,0-1.37-.52s-.38-1.19,0-1.45,1,0,1.36.51.38,1.2,0,1.46Zm0,0" fill="#191313"/><path d="M580,584.28c-.33.36-1.05.27-1.57-.24s-.69-1.19-.35-1.55,1.06-.27,1.59.23.69,1.19.33,1.56Zm0,0" fill="#191313"/><path d="M584.51,586.25c-.14.47-.83.69-1.53.49s-1.14-.77-1-1.25.83-.71,1.53-.49,1.15.76,1,1.25Zm0,0" fill="#191313"/><path d="M589.52,586.61c0,.5-.57.92-1.3.93s-1.32-.39-1.33-.89.58-.92,1.31-.93,1.32.39,1.32.89Zm0,0" fill="#191313"/><path d="M594.19,585.82c.08.49-.42,1-1.15,1.13s-1.36-.18-1.46-.66.43-1,1.14-1.14,1.37.17,1.47.67Zm0,0" fill="#191313"/></svg>