<svg id="レイヤー_1" data-name="レイヤー 1" xmlns="http://www.w3.org/2000/svg" xmlns:xlink="http://www.w3.org/1999/xlink" width="324" height="513" viewBox="0 0 324 513"><defs><style>.cls-1,.cls-14,.cls-35,.cls-36{fill:none;}.cls-2{fill:#3174b9;}.cls-2,.cls-3{fill-rule:evenodd;}.cls-3{fill:#ca3132;}.cls-28,.cls-4{fill:#f35045;}.cls-5{fill:#5d87a1;}.cls-6{fill:#f8981d;}.cls-21,.cls-7{fill:#4dba87;}.cls-8{fill:#435466;}.cls-9{fill:#97928f;}.cls-10{fill:#777f81;}.cls-11{fill:#dcdde1;}.cls-12{fill:#e12222;}.cls-13{fill:#221b1d;}.cls-14{stroke:#999;}.cls-14,.cls-35,.cls-36{stroke-miterlimit:10;}.cls-15{font-size:16.45px;fill:gray;font-family:AllRoundGothic-XLig, All Round Gothic;}.cls-16{fill:#30261d;}.cls-17{clip-path:url(#clip-path);}.cls-18{fill:#f32735;}.cls-19,.cls-20{fill:#809cc8;}.cls-20{font-size:6.56px;}.cls-20,.cls-21,.cls-28{font-family:KozGoPr6N-Regular-90ms-RKSJ-H, Kozuka Gothic Pr6N;}.cls-21,.cls-28{font-size:11.05px;}.cls-21{letter-spacing:-0.01em;}.cls-22{letter-spacing:0.02em;}.cls-23{letter-spacing:0em;}.cls-24{letter-spacing:0.02em;}.cls-25{letter-spacing:0.01em;}.cls-26{letter-spacing:0.02em;}.cls-27{fill:#2496ec;}.cls-28{letter-spacing:0.03em;}.cls-29{letter-spacing:0.01em;}.cls-30{letter-spacing:0.02em;}.cls-31{letter-spacing:0em;}.cls-32{letter-spacing:0.01em;}.cls-33{letter-spacing:0.02em;}.cls-34{letter-spacing:0.03em;}.cls-35,.cls-36{stroke:#ffc2c2;}.cls-36{font-size:14.36px;font-family:YuGothic-Light, Yu Gothic;font-weight:300;letter-spacing:0.01em;}.cls-37{letter-spacing:0.01em;}.cls-38{letter-spacing:-0.01em;}.cls-39{letter-spacing:0.02em;}</style><clipPath id="clip-path"><rect class="cls-1" x="76" y="391" width="54" height="22"/></clipPath></defs><path class="cls-2" d="M226.29,185.92s-1.55.85,1.1,1.14a24.12,24.12,0,0,0,8.37-.34,14.54,14.54,0,0,0,2.23,1C230.07,191,220.07,187.57,226.29,185.92Zm-1-4.22s-1.73,1.22.92,1.48a34.06,34.06,0,0,0,10.8-.49,4.87,4.87,0,0,0,1.67,1C229.13,186.32,218.47,183.86,225.32,181.7Z"/><path class="cls-3" d="M233.48,174.55c2,2.14-.51,4.06-.51,4.06s4.95-2.44,2.68-5.49c-2.13-2.84-3.76-4.25,5.06-9.12C240.71,164,226.86,167.29,233.48,174.55Z"/><path class="cls-2" d="M244,189s1.15.9-1.26,1.6c-4.57,1.32-19,1.71-23,.05-1.44-.6,1.27-1.43,2.12-1.6a5.36,5.36,0,0,1,1.39-.15c-1.6-1.08-10.37,2.11-4.45,3,16.14,2.49,29.43-1.13,25.24-2.93ZM227,177.33s-7.35,1.66-2.6,2.27a59.34,59.34,0,0,0,9.72-.1c3-.25,6.1-.77,6.1-.77a13.17,13.17,0,0,0-1.85,1c-7.46,1.87-21.89,1-17.73-.92a14.57,14.57,0,0,1,6.36-1.43Zm13.19,7c7.59-3.76,4.08-7.36,1.63-6.88a6.46,6.46,0,0,0-.87.22,1.4,1.4,0,0,1,.65-.47c4.85-1.62,8.57,4.78-1.56,7.32A.57.57,0,0,0,240.22,184.35Z"/><path class="cls-3" d="M235.65,156.13s4.2,4-4,10.16c-6.57,4.94-1.5,7.75,0,11-3.84-3.29-6.65-6.19-4.76-8.89,2.77-4,10.44-5.88,8.75-12.24Z"/><path class="cls-2" d="M227.78,194.53c7.28.44,18.47-.25,18.73-3.53,0,0-.5,1.24-6,2.23a63.12,63.12,0,0,1-18.43.27S223,194.23,227.78,194.53Z"/><path class="cls-3" d="M246.18,200.41H246v-.12h.59v.12h-.22V201h-.15Zm1.19,0h0l-.22.56h-.1l-.22-.56h0V201h-.15v-.71h.21l.21.5.2-.5h.21V201h-.14v-.56Zm-20.79,6.62a3.36,3.36,0,0,1-2.06.89,1.28,1.28,0,0,1-1.43-1.38c0-.92.54-1.59,2.7-1.59h.79v2.08Zm1.9,2v-6.3c0-1.61-1-2.68-3.29-2.68a9,9,0,0,0-3.52.73L222,202a8.77,8.77,0,0,1,2.72-.51c1.34,0,1.91.51,1.91,1.58v.8h-.67c-3.25,0-4.72,1.2-4.72,3,0,1.55,1,2.44,2.79,2.44a4.31,4.31,0,0,0,2.86-1.13l.15.95Zm6.33,0h-2.37l-2.84-8.82h2.06l1.77,5.42.39,1.63a32.35,32.35,0,0,0,1.84-7.05h2A34.45,34.45,0,0,1,234.81,209.1Zm9.07-2a3.38,3.38,0,0,1-2.06.89,1.29,1.29,0,0,1-1.44-1.38c0-.92.54-1.59,2.7-1.59h.8Zm1.9,2v-6.3c0-1.61-1-2.68-3.29-2.68a9,9,0,0,0-3.52.73l.28,1.11a8.71,8.71,0,0,1,2.71-.51c1.34,0,1.92.51,1.92,1.58v.8h-.67c-3.26,0-4.72,1.2-4.72,3,0,1.55,1,2.44,2.79,2.44a4.33,4.33,0,0,0,2.86-1.13l.15.95Zm-26.67,1.5a4.91,4.91,0,0,1-2.37,1.68l-.93-1.05a3.88,3.88,0,0,0,1.64-1.46,5.45,5.45,0,0,0,.35-2.55V197.15h2v9.93C219.82,209,219.65,209.83,219.11,210.6Z"/><path class="cls-4" d="M100.28,194.66c.33.5.53.46.79.35s13.41-4.81,13.82-5,.27-.29.14-.5-4.51-6.51-4.73-6.87-.33-.29-.68-.18l-14,3.84S100,194.16,100.28,194.66ZM116,188.25v-7.37l-4.34,1.22ZM111.65,173c-.22,0-5,1-5.27,1s-.2.22-.08.4l4.19,6.07s5.12-1.34,5.44-1.41l.07,0v-.81c-.93-1.24-3.47-4.64-3.69-5s-.45-.32-.66-.27Z"/><path class="cls-4" d="M81.7,163.48c1,0,1.12.2,1.57.91l11.38,20.1L109,180.87c-.79-1.19-4.39-6.58-4.74-7.09s0-.85.64-1,6.11-1.09,6.58-1.16.84-.25,1.61.72c.39.5,1.71,2.24,3,3.87v-9.4a8.27,8.27,0,0,0-2.32-5.9,7.39,7.39,0,0,0-5.58-2.44H81.79A7.39,7.39,0,0,0,76.21,161a8.34,8.34,0,0,0-1.9,3.14c2.58-.22,6.67-.57,7.39-.61Z"/><path class="cls-4" d="M101.57,197.36c-1.2.39-1.75.58-2.53-.58-.59-.87-3.77-6.92-5.33-9.91-3,.82-8.36,2.31-9.92,2.7a1.89,1.89,0,0,1-2.42-1.17c-.18-.41-4.64-10.57-7.48-17.09v23.35a8.23,8.23,0,0,0,2.32,5.89A7.4,7.4,0,0,0,81.79,203H108.1a7.4,7.4,0,0,0,5.58-2.45,8.23,8.23,0,0,0,2.32-5.89v-2.75C112.77,193.16,102.39,197.1,101.57,197.36Z"/><path class="cls-4" d="M83.83,187.23c.43-.1,8.44-2.13,8.61-2.16s.28-.15.1-.48L81.86,165.11c-.1-.18-.07-.24-.34-.22s-6.17.57-7.55.69c0,.31-.06.62-.07.93,1.39,3,9.41,20.48,9.45,20.62s.05.21.48.1Z"/><path class="cls-1" d="M59.19,267.74H144V316H59.19Z"/><path class="cls-5" d="M128.43,291.68a9.14,9.14,0,0,0-3.22.38c-.25.08-.64.08-.68.34.14.11.15.29.27.44a3.4,3.4,0,0,0,.86.83c.35.21.7.43,1.06.62.65.33,1.38.52,2,.85.37.19.73.43,1.1.64.18.1.3.28.53.35v0c-.12-.12-.15-.3-.27-.44l-.49-.39a7.35,7.35,0,0,0-1.73-1.38c-.53-.3-1.69-.7-1.9-1.21l0,0a8.65,8.65,0,0,0,1.15-.22c.56-.13,1.08-.1,1.65-.22.27,0,.53-.12.8-.19v-.12c-.3-.25-.51-.57-.83-.81a23.1,23.1,0,0,0-2.73-1.67c-.52-.27-1.18-.45-1.73-.68-.19-.08-.53-.12-.64-.26a4.84,4.84,0,0,1-.68-1.05c-.48-.74-1-1.57-1.36-2.37a12.94,12.94,0,0,0-.85-1.55,15.8,15.8,0,0,0-6.41-5.09,9.5,9.5,0,0,0-2.12-.55l-1.25-.06a6.45,6.45,0,0,1-.76-.47c-.94-.49-3.38-1.56-4.08-.15-.44.88.67,1.75,1,2.2a6.15,6.15,0,0,1,.84,1c.12.23.15.48.27.72a13.86,13.86,0,0,0,.86,1.83,6.89,6.89,0,0,0,.61.84c.14.15.37.22.42.46a3.36,3.36,0,0,0-.38,1,5,5,0,0,0,.48,4.58c.26.34.89,1.08,1.74.8s.58-1,.79-1.7c0-.17,0-.28.12-.38v0c.23.38.47.75.68,1.13a8.87,8.87,0,0,0,2.15,1.83c.4.24.72.66,1.21.81v0h0a2.16,2.16,0,0,0-.38-.27,6.11,6.11,0,0,1-.86-.82,17.17,17.17,0,0,1-1.86-2.47c-.26-.43-.49-.89-.71-1.31-.1-.16-.1-.41-.27-.49a5.33,5.33,0,0,0-.79.92,6.49,6.49,0,0,0-.47,2.06l-.06,0c-.53-.11-.71-.56-.91-.94a4.88,4.88,0,0,1-.15-3.63c.11-.29.61-1.19.41-1.46s-.43-.41-.61-.61a6.14,6.14,0,0,1-.6-.87c-.4-.77-.6-1.61-1-2.37a7.35,7.35,0,0,0-.83-1.05,7.14,7.14,0,0,1-.92-1.06c-.08-.15-.19-.4-.06-.56s.1-.15.23-.18.83,0,1,.13a8.77,8.77,0,0,1,1.65.68,3.27,3.27,0,0,0,.77.46h.35c.53.09,1.13,0,1.63.15a11.35,11.35,0,0,1,2.38.94,13.2,13.2,0,0,1,5.17,4.65c.2.31.29.6.47.93.35.66.78,1.35,1.12,2a8.48,8.48,0,0,0,1.18,1.82c.25.29,1.25.44,1.69.59s.85.23,1.15.38c.56.28,1.12.61,1.65.92.27.17,1.1.51,1.15.78m-16.91-11.83a3.08,3.08,0,0,0-.68.07v0h0a5.64,5.64,0,0,0,.53.56c.14.22.25.43.38.65l0,0a.71.71,0,0,0,.35-.68c-.1-.09-.12-.19-.2-.28s-.32-.21-.45-.32"/><path class="cls-6" d="M85.15,306.72H82.86q-.14-4.79-.67-9h0l-3.49,9H76.92l-3.47-9h0q-.39,4-.49,9H70.85a94.21,94.21,0,0,1,1-11.27h2.85L78,303.73h0l3.33-8.28h2.72a101,101,0,0,1,1.06,11.27m10-8.31q-1.41,6.24-3.7,9.08a5.09,5.09,0,0,1-3.92,2.18,4.72,4.72,0,0,1-1.4-.28v-1a6.73,6.73,0,0,0,1,.05,2.65,2.65,0,0,0,1.61-.45,1.56,1.56,0,0,0,.73-1.23,7,7,0,0,0-.57-1.92l-2.52-6.43h2.25l1.81,4.81a5.36,5.36,0,0,1,.51,2.29,26.73,26.73,0,0,0,2.07-7.1h2.18Z"/><path class="cls-6" d="M125.67,306.72h-6.52V295.45h2.19v9.88h4.33Zm-8.23.27-2.52-1a5.2,5.2,0,0,0,.63-.51,6.09,6.09,0,0,0,1.61-4.59c0-3.72-1.78-5.59-5.35-5.59a5.64,5.64,0,0,0-4.08,1.42,6.1,6.1,0,0,0-1.61,4.58,5.87,5.87,0,0,0,1.42,4.35,5.5,5.5,0,0,0,3.93,1.25,7.16,7.16,0,0,0,1.79-.2l3.29,1.57Zm-8.17-2.53a5.94,5.94,0,0,1-.83-3.53q0-4.26,3.15-4.26a2.84,2.84,0,0,1,2.42,1,5.87,5.87,0,0,1,.83,3.5q0,4.29-3.15,4.29a2.84,2.84,0,0,1-2.42-1m-4.1-.87a2.81,2.81,0,0,1-1.28,2.36,5.82,5.82,0,0,1-3.44.91,7.93,7.93,0,0,1-3.9-1.05l.59-1a7.81,7.81,0,0,0,3,.67,3.59,3.59,0,0,0,1.94-.45,1.46,1.46,0,0,0,.75-1.25c0-.67-.57-1.24-1.62-1.72s-2.88-1.34-2.88-1.34a2.64,2.64,0,0,1-.4-4.6,5,5,0,0,1,3-.85,7.25,7.25,0,0,1,3.48.84l-.53,1a8.07,8.07,0,0,0-2.64-.46,2.78,2.78,0,0,0-1.63.41,1.32,1.32,0,0,0-.61,1.07c0,.67.58,1.25,1.65,1.74s2.94,1.35,2.94,1.35a2.61,2.61,0,0,1,1.61,2.38"/><path class="cls-6" d="M130,306.71h.35v-1.38h-.52l-.42.95-.45-.95h-.5v1.38h.32v-1h0l.48,1h.25l.47-1v1Zm-2.76,0h.36v-1.14h.48v-.24h-1.34v.24h.5v1.14Z"/><path class="cls-7" d="M98.39,44,92.5,54.62,86.61,44H67L92.5,90,118,44Z"/><path class="cls-8" d="M98.39,44,92.5,54.62,86.61,44H77.2L92.5,71.6,107.8,44Z"/><rect class="cls-9" x="195.03" y="303.53" width="65.4" height="1.03"/><rect class="cls-10" x="195.03" y="303.53" width="65.4" height="1.03"/><path class="cls-11" d="M223.25,291.08h4.34l-2.29-6.39-4.21,11.54h-1.92l5.12-13.85c.22-.55.59-.9,1-.9s.77.33,1,.88l5.14,13.87H229.5l-.9-2.58h-4.39l-1-2.57"/><path class="cls-11" d="M243.15,293.65v-12h-1.63v13.21a2,2,0,0,0,.25,1,.71.71,0,0,0,.59.43h7.41l1-2.58h-7.58"/><path class="cls-11" d="M216.25,291.5c1.59,0,2.86-2.21,2.86-4.94s-1.27-4.94-2.86-4.94h-7.11v14.61h1.62v-12h5.38c.76,0,1.37,1.06,1.37,2.36s-.61,2.37-1.37,2.37h-4.58l4.85,7.3h2.36l-3.26-4.73h.74"/><path class="cls-11" d="M199.13,296.23c-2.34,0-4.23-3.27-4.23-7.3s1.89-7.31,4.23-7.31h4.92c2.34,0,4.22,3.27,4.22,7.31s-1.88,7.3-4.22,7.3h-4.92m4.8-2.57c1.52,0,2.74-2.12,2.74-4.73s-1.22-4.73-2.74-4.73h-4.69c-1.51,0-2.73,2.11-2.73,4.73s1.22,4.73,2.73,4.73h4.69"/><path class="cls-11" d="M234.82,296.23c-2.34,0-4.24-3.27-4.24-7.3s1.9-7.31,4.24-7.31h5.84l-1,2.58h-4.77c-1.52,0-2.74,2.11-2.74,4.73s1.22,4.73,2.74,4.73h5.86l-1,2.57h-5"/><path class="cls-11" d="M254.7,293.66c-1.25,0-2.3-1.46-2.63-3.44H259l1-2.58h-7.91c.32-2,1.38-3.44,2.63-3.44h4.78l.95-2.58H254.6c-2.34,0-4.23,3.27-4.23,7.31s1.89,7.3,4.23,7.3h5l1-2.57H254.7"/><path class="cls-11" d="M261.3,283.18c0-.71.34-1.28.75-1.28s.75.57.75,1.28-.33,1.29-.75,1.29-.75-.58-.75-1.29m.75,1.64c.53,0,.95-.72.95-1.63s-.42-1.65-.95-1.65-.95.74-.95,1.65.42,1.63.95,1.63m-.09-2.61a.5.5,0,0,1,.28.05c.19.11.2.41.2.51v.16a.53.53,0,0,1-.12.32l-.05,0,.25.76h-.24l-.22-.71h-.14v.71h-.21v-1.84H262m.08.83.17-.11,0-.16-.08-.23a.36.36,0,0,0-.2,0h0V283H262"/><path class="cls-12" d="M223.25,291.08h4.34l-2.29-6.39-4.21,11.54h-1.92l5.12-13.85c.22-.55.59-.9,1-.9s.77.33,1,.88l5.14,13.87H229.5l-.9-2.58h-4.39l-1-2.57"/><path class="cls-12" d="M243.15,293.65v-12h-1.63v13.21a2,2,0,0,0,.25,1,.71.71,0,0,0,.59.43h7.41l1-2.58h-7.58"/><path class="cls-12" d="M216.25,291.5c1.59,0,2.86-2.21,2.86-4.94s-1.27-4.94-2.86-4.94h-7.11v14.61h1.62v-12h5.38c.76,0,1.37,1.06,1.37,2.36s-.61,2.37-1.37,2.37h-4.58l4.85,7.3h2.36l-3.26-4.73h.74"/><path class="cls-12" d="M199.13,296.23c-2.34,0-4.23-3.27-4.23-7.3s1.89-7.31,4.23-7.31h4.92c2.34,0,4.22,3.27,4.22,7.31s-1.88,7.3-4.22,7.3h-4.92m4.8-2.57c1.52,0,2.74-2.12,2.74-4.73s-1.22-4.73-2.74-4.73h-4.69c-1.51,0-2.73,2.11-2.73,4.73s1.22,4.73,2.73,4.73h4.69"/><path class="cls-12" d="M234.82,296.23c-2.34,0-4.24-3.27-4.24-7.3s1.9-7.31,4.24-7.31h5.84l-1,2.58h-4.77c-1.52,0-2.74,2.11-2.74,4.73s1.22,4.73,2.74,4.73h5.86l-1,2.57h-5"/><path class="cls-12" d="M254.7,293.66c-1.25,0-2.3-1.46-2.63-3.44H259l1-2.58h-7.91c.32-2,1.38-3.44,2.63-3.44h4.78l.95-2.58H254.6c-2.34,0-4.23,3.27-4.23,7.31s1.89,7.3,4.23,7.3h5l1-2.57H254.7"/><path class="cls-12" d="M261.3,283.18c0-.71.34-1.28.75-1.28s.75.57.75,1.28-.33,1.29-.75,1.29-.75-.58-.75-1.29m.75,1.64c.53,0,.95-.72.95-1.63s-.42-1.65-.95-1.65-.95.74-.95,1.65.42,1.63.95,1.63m-.09-2.61a.5.5,0,0,1,.28.05c.19.11.2.41.2.51v.16a.53.53,0,0,1-.12.32l-.05,0,.25.76h-.24l-.22-.71h-.14v.71h-.21v-1.84H262m.08.83.17-.11,0-.16-.08-.23a.36.36,0,0,0-.2,0h0V283H262"/><path class="cls-13" d="M195,311.78h2c1.81,0,2.93,1.53,2.93,5s-1.12,5-2.93,5h-2v-10m1.24,8.35h.64c1.48,0,1.7-1.75,1.7-3.34s-.22-3.37-1.7-3.34h-.64Z"/><path class="cls-13" d="M203.79,321.79l2.1-10h1.48l2,10h-1.25l-.42-2.12h-2.29l-.44,2.12ZM207.4,318l-.79-4.27h0l-.85,4.27Z"/><polygon class="cls-13" points="212.4 311.78 217.1 311.78 217.1 313.45 215.37 313.45 215.37 321.78 214.13 321.78 214.13 313.45 212.4 313.45 212.4 311.78"/><path class="cls-13" d="M220.27,321.79l2.09-10h1.48l2,10H224.6l-.42-2.12h-2.29l-.44,2.12Zm3.6-3.78-.79-4.27h0l-.85,4.27Z"/><path class="cls-13" d="M229.9,321.78v-10h2.18c1-.11,2.09.64,2.09,2.59a2.43,2.43,0,0,1-1,2.2v0c.73.26,1.28,1.14,1.28,2.61a2.29,2.29,0,0,1-2.33,2.58h-2.2m2.22-6c.52,0,.81-.37.81-1.18s-.29-1.17-.81-1.17h-1v2.35Zm0,4.33c.58,0,1-.18,1-1.33s-.4-1.34-1-1.34h-1v2.67Z"/><path class="cls-13" d="M238.22,321.79l2.09-10h1.48l2,10h-1.25l-.42-2.12h-2.29l-.44,2.12Zm3.6-3.78-.8-4.27h0l-.85,4.27Z"/><path class="cls-13" d="M251,314.64c0-1-.36-1.51-1-1.51s-.93.41-.93,1.29c0,1.08.56,1.21,1.06,1.41.89.38,2.18.82,2.18,2.83,0,2.48-1.25,3.34-2.49,3.34s-2.26-.89-2.22-3.41h1.26c0,1.1.32,1.85,1,1.85.5,0,1.16-.26,1.16-1.32s-.83-1.26-1.32-1.49a2.76,2.76,0,0,1-1.92-2.76c0-2.28,1.22-3.29,2.41-3.29s2,1.05,2,3.06H251"/><polygon class="cls-13" points="256.53 311.78 260.41 311.78 260.41 313.45 257.77 313.45 257.77 315.79 260.24 315.79 260.24 317.45 257.77 317.45 257.77 320.13 260.5 320.13 260.5 321.78 256.53 321.78 256.53 311.78"/><path class="cls-13" d="M195,311.78h2c1.81,0,2.93,1.53,2.93,5s-1.12,5-2.93,5h-2v-10m1.24,8.35h.64c1.48,0,1.7-1.75,1.7-3.34s-.22-3.37-1.7-3.34h-.64Z"/><path class="cls-13" d="M203.79,321.79l2.1-10h1.48l2,10h-1.25l-.42-2.12h-2.29l-.44,2.12ZM207.4,318l-.79-4.27h0l-.85,4.27Z"/><polygon class="cls-13" points="212.4 311.78 217.1 311.78 217.1 313.45 215.37 313.45 215.37 321.78 214.13 321.78 214.13 313.45 212.4 313.45 212.4 311.78"/><path class="cls-13" d="M220.27,321.79l2.09-10h1.48l2,10H224.6l-.42-2.12h-2.29l-.44,2.12Zm3.6-3.78-.79-4.27h0l-.85,4.27Z"/><path class="cls-13" d="M229.9,321.78v-10h2.18c1-.11,2.09.64,2.09,2.59a2.43,2.43,0,0,1-1,2.2v0c.73.26,1.28,1.14,1.28,2.61a2.29,2.29,0,0,1-2.33,2.58h-2.2m2.22-6c.52,0,.81-.37.81-1.18s-.29-1.17-.81-1.17h-1v2.35Zm0,4.33c.58,0,1-.18,1-1.33s-.4-1.34-1-1.34h-1v2.67Z"/><path class="cls-13" d="M238.22,321.79l2.09-10h1.48l2,10h-1.25l-.42-2.12h-2.29l-.44,2.12Zm3.6-3.78-.8-4.27h0l-.85,4.27Z"/><path class="cls-13" d="M251,314.64c0-1-.36-1.51-1-1.51s-.93.41-.93,1.29c0,1.08.56,1.21,1.06,1.41.89.38,2.18.82,2.18,2.83,0,2.48-1.25,3.34-2.49,3.34s-2.26-.89-2.22-3.41h1.26c0,1.1.32,1.85,1,1.85.5,0,1.16-.26,1.16-1.32s-.83-1.26-1.32-1.49a2.76,2.76,0,0,1-1.92-2.76c0-2.28,1.22-3.29,2.41-3.29s2,1.05,2,3.06H251"/><polygon class="cls-13" points="256.53 311.78 260.41 311.78 260.41 313.45 257.77 313.45 257.77 315.79 260.24 315.79 260.24 317.45 257.77 317.45 257.77 320.13 260.5 320.13 260.5 321.78 256.53 321.78 256.53 311.78"/><rect class="cls-14" x="13.5" y="246.5" width="299" height="101" rx="5"/><rect class="cls-14" x="13.5" y="138.5" width="299" height="93" rx="5"/><rect class="cls-14" x="13.72" y="21" width="298.78" height="97.8" rx="5"/><text class="cls-15" transform="translate(32.94 110.38) rotate(-90) scale(1.01 1)">Frontend</text><text class="cls-15" transform="translate(32.63 218.28) rotate(-90) scale(1.01 1)">Backend</text><text class="cls-15" transform="translate(32.16 336.8) rotate(-90) scale(1.01 1)">Database</text><rect class="cls-14" x="13.5" y="362.5" width="299" height="123" rx="5"/><text class="cls-15" transform="translate(31.7 448.34) rotate(-90) scale(1.01 1)">Other</text><path class="cls-16" d="M108.36,398.49a1.81,1.81,0,0,0-2.06,1.93c0,1,.58,1.74,2,1.74a1.8,1.8,0,0,0,2-1.78,1.74,1.74,0,0,0-2-1.89ZM106,408.12a1.88,1.88,0,0,0-.56,1.12c0,.84,1.09,1.09,2.6,1.09,1.25,0,2.95-.09,2.95-1.22,0-.67-.82-.71-1.85-.78l-3.14-.21Zm6.37-9.57a3.32,3.32,0,0,1,.79,2.12c0,2.33-1.87,3.7-4.58,3.7a7.26,7.26,0,0,1-1.7-.19l-.71,1.11,2.11.13c3.72.23,5.91.33,5.91,3.12,0,2.42-2.17,3.78-5.91,3.78-3.9,0-5.38-1-5.38-2.62a2.69,2.69,0,0,1,1.18-2.14,1.41,1.41,0,0,1-1-1.39,1.87,1.87,0,0,1,.63-1.28c.38-.4.82-.8,1.33-1.26a3.34,3.34,0,0,1-1.85-3.15c0-2.41,1.64-4.07,4.93-4.07a7.47,7.47,0,0,1,2,.21h4.2v1.78l-2,.15Z"/><path class="cls-16" d="M118.13,394.74a1.75,1.75,0,0,1-1.93-1.89,1.95,1.95,0,0,1,3.89,0,1.76,1.76,0,0,1-2,1.89Zm-2.77,12.61v-1.66l1.09-.14c.3,0,.35-.11.35-.42V399c0-.23-.07-.38-.28-.44l-1.16-.4.23-1.7h4.46v8.71c0,.33,0,.38.34.42l1.1.14v1.66Z"/><g class="cls-17"><path class="cls-16" d="M130,406.54a8.8,8.8,0,0,1-3.51.84c-2.56,0-3.53-1-3.53-3.38v-5.5c0-.13,0-.21-.17-.21h-1.51v-1.87c1.9-.21,2.65-1.13,2.89-3.42h2v3c0,.15,0,.21.17.21h3v2.1h-3.21v5c0,1.23.3,1.72,1.47,1.72a5.23,5.23,0,0,0,1.74-.34l.58,1.85Z"/><path class="cls-18" d="M98.11,401l-9.84-9.6a1.48,1.48,0,0,0-2,0l-2,2L86.77,396a1.75,1.75,0,0,1,1.77.41A1.65,1.65,0,0,1,89,398.1l2.5,2.43a1.76,1.76,0,0,1,1.78.4,1.66,1.66,0,0,1,0,2.39,1.77,1.77,0,0,1-2.44,0,1.68,1.68,0,0,1-.38-1.84l-2.32-2.27v6a1.81,1.81,0,0,1,.46.32,1.64,1.64,0,0,1,0,2.38,1.75,1.75,0,0,1-2.44,0,1.64,1.64,0,0,1,0-2.38,1.82,1.82,0,0,1,.56-.37v-6a2,2,0,0,1-.56-.37,1.66,1.66,0,0,1-.37-1.84l-2.56-2.5L76.43,401a1.38,1.38,0,0,0,0,2l9.84,9.6a1.48,1.48,0,0,0,2,0L98.11,403a1.38,1.38,0,0,0,0-2Z"/></g><path class="cls-19" d="M200.64,381.47v12.86a226.81,226.81,0,0,1,29-8.33q11.65-2.69,22.54-4.53ZM254,384.21c-7,1-13.34,2.09-18.89,3.37A113.62,113.62,0,0,0,219.77,392c-3.87,1.48-5.67,2.68-5.42,3.61s1.85,1.19,4.88,1.11c1.55,0,4.07-.18,7.57-.47s8-.69,13.54-1.23,10-.87,13.66-1.08v-9.77Zm-15.62,16.32c-1.56,0-3.7.12-6.44.31s-6.16.46-10.24.85c-6.33.62-11.61,1.11-15.79,1.42-2,.16-3.75.26-5.27.33v10.44q12.47-1.68,22.53-4a106.84,106.84,0,0,0,15.21-4.42c3.56-1.43,5.22-2.65,5-3.63s-1.9-1.28-5-1.3ZM254,404.19a243.2,243.2,0,0,1-27.2,7.71q-15.12,3.48-26.16,5V417H254V404.19Zm-51.13,2.19h.07a.51.51,0,0,1,.38.14.44.44,0,0,1,.09.52.53.53,0,0,1-.56.27.47.47,0,0,1,0-.93Zm1.89,0a.46.46,0,0,1,.32.1.47.47,0,0,1,.15.54.52.52,0,0,1-.51.31.51.51,0,0,1-.45-.28.45.45,0,0,1,.2-.6.59.59,0,0,1,.29-.07Zm-1.82,3.07a.49.49,0,0,1,.49.33.48.48,0,0,1-.26.57.55.55,0,0,1-.66-.15.45.45,0,0,1,.07-.63.58.58,0,0,1,.36-.12Zm1.82,0a.5.5,0,0,1,.43.23.45.45,0,0,1-.13.62.57.57,0,0,1-.72-.07.46.46,0,0,1,.06-.68.61.61,0,0,1,.36-.1Z"/><text class="cls-20" transform="translate(210.45 423.78) scale(1.06 1)">Subversion</text><text class="cls-21" transform="translate(78.07 103.43) scale(1.07 1)">V<tspan class="cls-22" x="6.48" y="0">u</tspan><tspan class="cls-23" x="13.22" y="0">e</tspan><tspan class="cls-24" x="19.22" y="0">.</tspan><tspan class="cls-25" x="21.87" y="0">j</tspan><tspan class="cls-26" x="24.79" y="0">s</tspan></text><path class="cls-27" d="M74.08,452.26a1.14,1.14,0,0,1,1.17-.7q8.86,0,17.73,0a9.15,9.15,0,0,0,1.84-.34,1.89,1.89,0,0,0,.33-.15,5.36,5.36,0,0,1,.5-5.57,4.69,4.69,0,0,1,2.39,3.4c.6,0,1.18,0,1.76,0a3,3,0,0,1,1.68.62.39.39,0,0,1,.15.54,3.86,3.86,0,0,1-3,2.55,3.1,3.1,0,0,1-.86.07c-.24,0-.32.1-.41.32a17.78,17.78,0,0,1-3,5.41,12.46,12.46,0,0,1-7.19,4.23c-.64.14-1.29.2-1.93.29a1.22,1.22,0,0,0-.17.07H82.27a1.07,1.07,0,0,0-.19-.07c-.67-.12-1.35-.21-2-.36a6.41,6.41,0,0,1-4.46-3.31,12.14,12.14,0,0,1-1.27-3.78c-.09-.53-.17-1.07-.26-1.6Z"/><path class="cls-27" d="M151,452.83c-.38.61-.56.68-1.23.44-1.63-.59-3.46.63-3.42,2.86,0,1.15,0,2.29,0,3.44a.79.79,0,0,1-.6.8.72.72,0,0,1-.83-.44,1.22,1.22,0,0,1-.08-.47c0-2.36,0-4.72,0-7.08,0-.55.28-.9.72-.93s.73.3.79.86c0,0,0,0,0,0a17.46,17.46,0,0,1,1.8-.74,3.49,3.49,0,0,1,2,.08,1.26,1.26,0,0,1,.83.7Z"/><path class="cls-27" d="M89.38,441.32a2.38,2.38,0,0,1,.06.37c0,.7,0,1.4,0,2.1,0,.26-.09.39-.33.38H86.91c-.23,0-.35-.1-.34-.37,0-.7,0-1.4,0-2.1a1.86,1.86,0,0,1,.12-.38Z"/><path class="cls-27" d="M109.48,452.41v-3.85c0-.59.31-.94.79-.93a.75.75,0,0,1,.74.8c0,2.63,0,5.26,0,7.89a4.28,4.28,0,0,1-3.25,4,4.1,4.1,0,0,1-4.76-3.24c-.73-3,1.48-5.86,4.3-5.6A4,4,0,0,1,109.48,452.41Zm0,3.5a2.69,2.69,0,0,0-2.54-2.79,2.81,2.81,0,1,0,2.54,2.79Z"/><path class="cls-27" d="M137.52,456.76a2.53,2.53,0,0,0,1.81,1.89,2.34,2.34,0,0,0,2.29-.63.72.72,0,0,1,1.14,0,.91.91,0,0,1-.14,1.24,3.64,3.64,0,0,1-4.12.83,4.13,4.13,0,0,1-2.6-3.51,4.39,4.39,0,0,1,3.32-5.08,4.21,4.21,0,0,1,4.79,4.2c0,.71-.25,1-.9,1h-5.59Zm4.83-1.69a2.59,2.59,0,0,0-2.5-1.94,2.54,2.54,0,0,0-2.33,1.94Z"/><path class="cls-27" d="M130.13,454.67l2.38-1.69,1.93-1.37a.69.69,0,0,1,.87,0,.77.77,0,0,1,.32.84,1.12,1.12,0,0,1-.4.59c-.85.64-1.73,1.24-2.6,1.86l-.31.23,1.44,1.78c.55.68,1.11,1.35,1.66,2a.86.86,0,0,1-.41,1.43.73.73,0,0,1-.75-.34l-2.88-3.54L131,456c-.26.19-.52.35-.75.55a.51.51,0,0,0-.12.35c0,.86,0,1.71,0,2.56a.85.85,0,0,1-.56.85.68.68,0,0,1-.83-.34,1,1,0,0,1-.13-.49q0-5.5,0-11a.79.79,0,0,1,.77-.88.81.81,0,0,1,.76.89v6.15Z"/><path class="cls-27" d="M120,456a4.1,4.1,0,1,1-4.09-4.5A4.27,4.27,0,0,1,120,456Zm-1.53,0a2.57,2.57,0,1,0-2.56,2.81A2.7,2.7,0,0,0,118.44,455.91Z"/><path class="cls-27" d="M120.73,455.66A4.3,4.3,0,0,1,123,451.9a3.66,3.66,0,0,1,4.23.44l.2.18a.91.91,0,0,1,.1,1.19.71.71,0,0,1-1.06.12,2.94,2.94,0,0,0-1.35-.68,2.63,2.63,0,0,0-2.88,2.33,2.82,2.82,0,0,0,2,3.17,2.35,2.35,0,0,0,2.16-.58.73.73,0,0,1,.92-.1.75.75,0,0,1,.33.87,1.43,1.43,0,0,1-.43.65,3.84,3.84,0,0,1-5.6-.73A4.87,4.87,0,0,1,120.73,455.66Z"/><path class="cls-27" d="M77.85,451H76.74c-.22,0-.32-.1-.32-.33,0-.74,0-1.47,0-2.21,0-.22.1-.32.29-.32H79c.21,0,.32.12.32.35v2.17c0,.24-.11.35-.34.34Z"/><path class="cls-27" d="M84.66,451H83.51c-.22,0-.31-.1-.31-.33V448.5c0-.26.11-.36.33-.36h2.2c.25,0,.35.12.35.38,0,.71,0,1.43,0,2.14,0,.25-.11.35-.34.34Z"/><path class="cls-27" d="M88,451H86.9c-.23,0-.33-.1-.33-.35v-2.17c0-.24.11-.34.31-.34h2.24c.22,0,.33.1.33.36,0,.72,0,1.45,0,2.17,0,.24-.1.34-.32.33Z"/><path class="cls-27" d="M81.2,451H80.11c-.23,0-.33-.1-.33-.35,0-.71,0-1.42,0-2.14,0-.24.09-.37.32-.37h2.23c.23,0,.33.1.33.36,0,.71,0,1.42,0,2.14,0,.27-.1.37-.35.36Z"/><path class="cls-27" d="M91.39,451H90.31c-.23,0-.34-.09-.34-.34v-2.17c0-.23.1-.35.31-.35h2.26c.22,0,.3.12.3.35,0,.73,0,1.45,0,2.17,0,.27-.11.35-.33.34Z"/><path class="cls-27" d="M81.21,447.57H80.09c-.22,0-.31-.11-.31-.34,0-.72,0-1.45,0-2.17,0-.24.11-.33.32-.33h2.24c.23,0,.32.1.32.35,0,.72,0,1.43,0,2.14,0,.27-.1.35-.33.35Z"/><path class="cls-27" d="M88,444.74h1.12c.22,0,.33.08.33.34,0,.72,0,1.43,0,2.14,0,.26-.09.36-.32.36H86.89c-.24,0-.32-.12-.32-.36v-2.11c0-.27.09-.38.34-.37Z"/><path class="cls-27" d="M84.63,444.74h1.12c.21,0,.32.07.32.32,0,.73,0,1.47,0,2.21,0,.22-.09.31-.29.31H83.51c-.22,0-.31-.11-.31-.34v-2.17c0-.23.1-.33.31-.33Z"/><path class="cls-27" d="M148.73,459.76a.54.54,0,1,1-1.08,0,.54.54,0,1,1,1.08,0Zm-.29.3a.43.43,0,0,0,0-.63.35.35,0,0,0-.56,0,.45.45,0,0,0,0,.63c.16.17.36.24.53,0Z"/><path class="cls-27" d="M148.44,460.05l-.28-.2-.14.29v-.64c.19,0,.45-.17.36.29,0,.08,0,.18.06.27Z"/><text class="cls-28" transform="translate(76.49 216.05) scale(1.07 1)">L<tspan class="cls-29" x="5.94" y="0">a</tspan><tspan class="cls-30" x="11.79" y="0">r</tspan><tspan class="cls-31" x="15.85" y="0">a</tspan><tspan class="cls-32" x="21.56" y="0">v</tspan><tspan class="cls-33" x="27.29" y="0">e</tspan><tspan class="cls-34" x="33.45" y="0">l</tspan></text><rect class="cls-35" x="174.5" y="89.5" width="120" height="362" rx="5"/><text class="cls-36" transform="translate(205.45 110.72) scale(1.01 1)">業<tspan class="cls-37" x="14.43" y="0">務</tspan><tspan class="cls-38" x="28.91" y="0">利</tspan><tspan class="cls-39" x="43.1" y="0">用</tspan></text></svg>