<svg xmlns="http://www.w3.org/2000/svg" xmlns:xlink="http://www.w3.org/1999/xlink" width="480.22" height="156.19" viewBox="0 0 480.22 156.19"><defs><radialGradient id="名称未設定グラデーション_8" cx="280.48" cy="54.73" r="1.42" gradientTransform="translate(-159.55 -69.01) scale(1.53 2.34)" gradientUnits="userSpaceOnUse"><stop offset="0" stop-color="#fff"/><stop offset="1"/></radialGradient><radialGradient id="名称未設定グラデーション_8-2" cx="272.23" cy="80.37" r="1.42" gradientTransform="translate(-286.21 -82.66) scale(1.98 2.6)" xlink:href="#名称未設定グラデーション_8"/><radialGradient id="名称未設定グラデーション_8-3" cx="312.85" cy="27.28" r="1.42" gradientTransform="translate(66.02 3.05) scale(0.75 1.1)" xlink:href="#名称未設定グラデーション_8"/><radialGradient id="名称未設定グラデーション_8-4" cx="423.21" cy="-20.03" r="1.42" gradientTransform="translate(182.01 34.56) scale(0.35 0.61)" xlink:href="#名称未設定グラデーション_8"/><radialGradient id="名称未設定グラデーション_8-5" cx="262.13" cy="45.38" r="1.42" gradientTransform="matrix(-1.08, 0, 0, 1.69, 592.42, -31.04)" xlink:href="#名称未設定グラデーション_8"/><radialGradient id="名称未設定グラデーション_8-6" cx="283.43" cy="64.57" r="1.42" gradientTransform="matrix(-1.75, 0, 0, 2.54, 787.52, -78.15)" xlink:href="#名称未設定グラデーション_8"/><radialGradient id="名称未設定グラデーション_8-7" cx="228.52" cy="27.28" r="1.42" gradientTransform="matrix(-0.75, 0, 0, 1.1, 498.77, 3.05)" xlink:href="#名称未設定グラデーション_8"/><radialGradient id="名称未設定グラデーション_8-8" cx="95.24" cy="-21.89" r="1.42" gradientTransform="matrix(-0.35, 0, 0, 0.61, 382.79, 34.56)" xlink:href="#名称未設定グラデーション_8"/><radialGradient id="名称未設定グラデーション_8-9" cx="72.25" cy="-29.03" r="1.42" gradientTransform="matrix(-0.35, 0, 0, 0.61, 382.79, 34.56)" xlink:href="#名称未設定グラデーション_8"/><filter id="luminosity-noclip" x="266.58" y="55.99" width="4.57" height="6.26" filterUnits="userSpaceOnUse" color-interpolation-filters="sRGB"><feFlood flood-color="#fff" result="bg"/><feBlend in="SourceGraphic" in2="bg"/></filter><mask id="mask" x="266.58" y="55.99" width="4.57" height="6.26" maskUnits="userSpaceOnUse"><ellipse cx="268.87" cy="59.12" rx="2.29" ry="3.13" fill="url(#名称未設定グラデーション_8)" filter="url(#luminosity-noclip)"/></mask><filter id="luminosity-noclip-2" x="250.28" y="122.82" width="5.93" height="6.95" filterUnits="userSpaceOnUse" color-interpolation-filters="sRGB"><feFlood flood-color="#fff" result="bg"/><feBlend in="SourceGraphic" in2="bg"/></filter><mask id="mask-2" x="250.28" y="122.82" width="5.93" height="6.95" maskUnits="userSpaceOnUse"><ellipse cx="253.24" cy="126.3" rx="2.97" ry="3.47" fill="url(#名称未設定グラデーション_8-2)" filter="url(#luminosity-noclip-2)"/></mask><filter id="luminosity-noclip-3" x="299.62" y="31.49" width="2.25" height="2.93" filterUnits="userSpaceOnUse" color-interpolation-filters="sRGB"><feFlood flood-color="#fff" result="bg"/><feBlend in="SourceGraphic" in2="bg"/></filter><mask id="mask-3" x="299.62" y="31.49" width="2.25" height="2.93" maskUnits="userSpaceOnUse"><ellipse cx="300.75" cy="32.95" rx="1.12" ry="1.46" fill="url(#名称未設定グラデーション_8-3)" filter="url(#luminosity-noclip-3)"/></mask><filter id="luminosity-noclip-4" x="327.51" y="21.5" width="1.03" height="1.63" filterUnits="userSpaceOnUse" color-interpolation-filters="sRGB"><feFlood flood-color="#fff" result="bg"/><feBlend in="SourceGraphic" in2="bg"/></filter><mask id="mask-4" x="327.51" y="21.5" width="1.03" height="1.63" maskUnits="userSpaceOnUse"><ellipse cx="328.03" cy="22.32" rx="0.52" ry="0.82" fill="url(#名称未設定グラデーション_8-4)" filter="url(#luminosity-noclip-4)"/></mask><filter id="luminosity-noclip-5" x="307.9" y="43.23" width="3.23" height="4.5" filterUnits="userSpaceOnUse" color-interpolation-filters="sRGB"><feFlood flood-color="#fff" result="bg"/><feBlend in="SourceGraphic" in2="bg"/></filter><mask id="mask-5" x="307.9" y="43.23" width="3.23" height="4.5" maskUnits="userSpaceOnUse"><ellipse cx="309.51" cy="45.48" rx="1.61" ry="2.25" fill="url(#名称未設定グラデーション_8-5)" filter="url(#luminosity-noclip-5)"/></mask><filter id="luminosity-noclip-6" x="288.73" y="82.42" width="5.24" height="6.78" filterUnits="userSpaceOnUse" color-interpolation-filters="sRGB"><feFlood flood-color="#fff" result="bg"/><feBlend in="SourceGraphic" in2="bg"/></filter><mask id="mask-6" x="288.73" y="82.42" width="5.24" height="6.78" maskUnits="userSpaceOnUse"><ellipse cx="291.35" cy="85.81" rx="2.62" ry="3.39" fill="url(#名称未設定グラデーション_8-6)" filter="url(#luminosity-noclip-6)"/></mask><filter id="luminosity-noclip-7" x="326.2" y="31.49" width="2.25" height="2.93" filterUnits="userSpaceOnUse" color-interpolation-filters="sRGB"><feFlood flood-color="#fff" result="bg"/><feBlend in="SourceGraphic" in2="bg"/></filter><mask id="mask-7" x="326.2" y="31.49" width="2.25" height="2.93" maskUnits="userSpaceOnUse"><ellipse cx="327.32" cy="32.95" rx="1.12" ry="1.46" fill="url(#名称未設定グラデーション_8-7)" filter="url(#luminosity-noclip-7)"/></mask><filter id="luminosity-noclip-8" x="349.41" y="20.36" width="1.03" height="1.63" filterUnits="userSpaceOnUse" color-interpolation-filters="sRGB"><feFlood flood-color="#fff" result="bg"/><feBlend in="SourceGraphic" in2="bg"/></filter><mask id="mask-8" x="349.41" y="20.36" width="1.03" height="1.63" maskUnits="userSpaceOnUse"><ellipse cx="349.92" cy="21.18" rx="0.52" ry="0.82" fill="url(#名称未設定グラデーション_8-8)" filter="url(#luminosity-noclip-8)"/></mask><filter id="luminosity-noclip-9" x="357.34" y="16" width="1.03" height="1.63" filterUnits="userSpaceOnUse" color-interpolation-filters="sRGB"><feFlood flood-color="#fff" result="bg"/><feBlend in="SourceGraphic" in2="bg"/></filter><mask id="mask-9" x="357.34" y="16" width="1.03" height="1.63" maskUnits="userSpaceOnUse"><ellipse cx="357.86" cy="16.82" rx="0.52" ry="0.82" fill="url(#名称未設定グラデーション_8-9)" filter="url(#luminosity-noclip-9)"/></mask></defs><g id="レイヤー_2" data-name="レイヤー 2"><g id="フォルダー_1" data-name="フォルダー 1" style="isolation:isolate"><g id="BgBack"><path d="M331.12,23.66c-11.33,2.51-34.73,6.77-54,11.7A634.42,634.42,0,0,1,198.64,50L90.86,156.1H480.22L480,22.17a186.37,186.37,0,0,1-39.4-6.94A186.3,186.3,0,0,1,403.53,0a51.35,51.35,0,0,0-8,3.15,52.5,52.5,0,0,0-8,4.83,257.77,257.77,0,0,1-24.78,8.57C348.84,20.6,338.29,22.08,331.12,23.66Z" fill="#9abf91"/><path d="M480,44.47V22.17a186.37,186.37,0,0,1-39.4-6.94A186.3,186.3,0,0,1,403.53,0a157.68,157.68,0,0,0,45.34,33.25A156.52,156.52,0,0,0,480,44.47Z" fill="#78789a"/><path d="M226.54,45.92c-4.52,4-11.09,9.79-18.93,17-11.28,10.41-17,15.79-21.66,21.34a134.54,134.54,0,0,0-16.68,25.32c-6.61,12.48-6.26,15.82-12,25.6a98.35,98.35,0,0,1-16.42,20.9H105L184.24,52Z" fill="#c3b6b6"/><path d="M0,48.78l211.88-.67A26.77,26.77,0,0,1,203.26,53c-5.14,1.75-9,1.2-10.57,3.93-1,1.77.29,2.64-.51,4.44-1.9,4.31-10.22,1.85-14.11,6.17-2.95,3.27.31,6.38-1.4,11.8-3.73,11.89-23.85,11.37-26.14,22.51-.72,3.5,1.1,4.32-.2,7.77-1.55,4.13-4.94,5.09-14.19,11-9.61,6.17-11,8.3-11.56,10.13-1.28,4.12.66,6.68.1,10.35C124,145.5,119.92,151,105,156.1L.13,155.61Q.05,102.2,0,48.78Z" fill="#0e6c7e"/><path d="M249.82,156.1A75.69,75.69,0,0,1,244.56,134C241.85,100.59,262.89,75.3,272,64.4c23.32-28,52.78-38.5,66.4-42.35,16.71-3.69,33.37-7.48,49.22-14.07L362.42,19.86a182.59,182.59,0,0,0-27.71,19.41A179.66,179.66,0,0,0,317.51,56a79.77,79.77,0,0,0-17,38.82c-4.49,32.44,13.38,56.4,17.19,61.3Z" fill="#818181"/><path d="M344.05,20.79a151.53,151.53,0,0,0-39.41,20.56c-11.91,8.84-23,19-31.75,31-2.22,3-4.21,6.12-6.14,9.28s-3.62,6.47-5.25,9.82a94.79,94.79,0,0,0-7.83,20.75,70.39,70.39,0,0,0,4,43.44l-.92.39a71.28,71.28,0,0,1-3.8-44,95.34,95.34,0,0,1,8-20.86c1.65-3.33,3.43-6.62,5.33-9.83s4-6.31,6.21-9.29c8.85-12,20-22.14,32-30.93A152.2,152.2,0,0,1,344.05,20.79Z" fill="#eaefef"/><path d="M370.39,14.32a137.13,137.13,0,0,0-38.9,22.81c-2.89,2.43-5.66,5-8.33,7.66s-5.3,5.38-7.73,8.26a98.87,98.87,0,0,0-12.54,18.76,96.82,96.82,0,0,0-8.56,20.86,66,66,0,0,0-2,22.34c1.24,15,8,29.3,17.89,40.52l-.75.66c-10-11.42-16.71-25.91-17.88-41.11a66.3,66.3,0,0,1,2.13-22.57,96.65,96.65,0,0,1,8.72-20.93,98.61,98.61,0,0,1,12.7-18.77c2.45-2.88,5.08-5.6,7.79-8.24s5.48-5.21,8.39-7.63A137.13,137.13,0,0,1,370.39,14.32Z" fill="#eaefef"/><path d="M263.43,53.15l1,.06a4.87,4.87,0,0,1,.18,1,5.09,5.09,0,0,1-.05,1,2.64,2.64,0,0,1,2.46-.1,4.4,4.4,0,0,1,2.1,3.55l-.89.5a3.9,3.9,0,0,0-1.15-2.79,2.07,2.07,0,0,0-2.87.22c-.29,2.46-.51,5.15-.61,8.06A100.27,100.27,0,0,0,264,78l-.78.09a117,117,0,0,1-.36-13.35c.08-2.92.27-5.65.53-8.18a5.1,5.1,0,0,0,.3-2.24A4.92,4.92,0,0,0,263.43,53.15Z" fill="#4b4b4b"/><g mask="url(#mask)"><path d="M269.33,57.09a2.42,2.42,0,0,1,1.14,2.68,1.6,1.6,0,0,1-2.22,1.31,2.51,2.51,0,0,1-1-2.68A1.57,1.57,0,0,1,269.33,57.09Z" fill="#fbf5bb"/></g><ellipse cx="268.86" cy="59.11" rx="0.69" ry="0.89" fill="#f6f1b9"/><path d="M246.18,119.67l1.31.06a4.92,4.92,0,0,1,.23,1.14,4.7,4.7,0,0,1-.07,1.14,4,4,0,0,1,3.19-.11,4.83,4.83,0,0,1,2.73,3.95l-1.16.55a4,4,0,0,0-1.48-3.1,3,3,0,0,0-3.73.24c-.37,2.73-.66,5.73-.8,9a95.75,95.75,0,0,0,.52,14.73l-1,.1a110.05,110.05,0,0,1-.48-14.83c.11-3.24.36-6.27.69-9.08a4.93,4.93,0,0,0,.39-2.49A4.67,4.67,0,0,0,246.18,119.67Z" fill="#4b4b4b"/><g mask="url(#mask-2)"><path d="M253.84,124a2.59,2.59,0,0,1,1.48,3,2.12,2.12,0,0,1-2.89,1.45,2.6,2.6,0,0,1-1.28-3A2.09,2.09,0,0,1,253.84,124Z" fill="#fbf5bb"/></g><ellipse cx="253.22" cy="126.29" rx="0.89" ry="0.99" fill="#f6f1b9"/><path d="M298.08,30.15l.49,0a3.2,3.2,0,0,1,.09.48,2.13,2.13,0,0,1,0,.48,1.39,1.39,0,0,1,1.21,0,2,2,0,0,1,1,1.66l-.44.23a1.75,1.75,0,0,0-.56-1.3,1,1,0,0,0-1.41.1c-.14,1.15-.25,2.41-.3,3.77a44.8,44.8,0,0,0,.19,6.21l-.38,0a53.41,53.41,0,0,1-.18-6.25c0-1.36.14-2.64.26-3.83a2.22,2.22,0,0,0,.15-1.05A3.88,3.88,0,0,0,298.08,30.15Z" fill="#4b4b4b"/><g mask="url(#mask-3)"><path d="M301,32a1.09,1.09,0,0,1,.56,1.25.79.79,0,0,1-1.09.62,1.14,1.14,0,0,1-.48-1.26A.77.77,0,0,1,301,32Z" fill="#fbf5bb"/></g><ellipse cx="300.74" cy="32.95" rx="0.34" ry="0.42" fill="#f6f1b9"/><path d="M326.8,20.76l.23,0a1.3,1.3,0,0,1,0,.26,2,2,0,0,1,0,.27.56.56,0,0,1,.55,0,1.19,1.19,0,0,1,.48.93l-.2.13a1.19,1.19,0,0,0-.26-.73.43.43,0,0,0-.65.06c-.07.64-.12,1.35-.14,2.11a31.22,31.22,0,0,0,.09,3.46l-.18,0c-.07-1-.11-2.2-.08-3.48,0-.77.06-1.48.12-2.14a1.57,1.57,0,0,0,.07-.58A1.42,1.42,0,0,0,326.8,20.76Z" fill="#4b4b4b"/><g mask="url(#mask-4)"><path d="M328.13,21.79a.66.66,0,0,1,.26.7c-.06.31-.31.46-.5.34a.71.71,0,0,1-.22-.7C327.73,21.83,328,21.7,328.13,21.79Z" fill="#fbf5bb"/></g><ellipse cx="328.03" cy="22.32" rx="0.15" ry="0.23" fill="#f6f1b9"/><path d="M313.36,41.18l-.71,0a3.57,3.57,0,0,0-.13.74,3.21,3.21,0,0,0,0,.74,1.84,1.84,0,0,0-1.74-.07,3.15,3.15,0,0,0-1.48,2.56l.63.35a2.85,2.85,0,0,1,.8-2,1.45,1.45,0,0,1,2,.16q.31,2.66.44,5.81a75.17,75.17,0,0,1-.28,9.55l.55.06a88,88,0,0,0,.26-9.61c-.06-2.1-.2-4.07-.38-5.89a3.77,3.77,0,0,1-.21-1.62A3.39,3.39,0,0,1,313.36,41.18Z" fill="#4b4b4b"/><g mask="url(#mask-5)"><path d="M309.19,44a1.77,1.77,0,0,0-.81,1.93,1.13,1.13,0,0,0,1.57.94,1.82,1.82,0,0,0,.7-1.93A1.11,1.11,0,0,0,309.19,44Z" fill="#fbf5bb"/></g><ellipse cx="309.52" cy="45.47" rx="0.48" ry="0.64" fill="#f6f1b9"/><path d="M297.58,79.33l-1.15.07a4.83,4.83,0,0,0-.2,1.12,4.58,4.58,0,0,0,.06,1.11,3.21,3.21,0,0,0-2.82-.12,4.74,4.74,0,0,0-2.41,3.86l1,.54a4.12,4.12,0,0,1,1.31-3,2.47,2.47,0,0,1,3.29.24c.33,2.67.59,5.59.71,8.74a103,103,0,0,1-.46,14.39l.9.09a120.06,120.06,0,0,0,.42-14.48c-.1-3.16-.32-6.13-.61-8.86a5.12,5.12,0,0,1-.34-2.44A5.23,5.23,0,0,1,297.58,79.33Z" fill="#4b4b4b"/><g mask="url(#mask-6)"><path d="M290.82,83.61a2.59,2.59,0,0,0-1.31,2.91,1.83,1.83,0,0,0,2.55,1.41,2.63,2.63,0,0,0,1.13-2.9A1.82,1.82,0,0,0,290.82,83.61Z" fill="#fbf5bb"/></g><ellipse cx="291.36" cy="85.8" rx="0.79" ry="0.96" fill="#f6f1b9"/><path d="M330,30.15l-.49,0a2.29,2.29,0,0,0-.09.48,2.13,2.13,0,0,0,0,.48,1.39,1.39,0,0,0-1.21,0,2,2,0,0,0-1,1.66l.44.23a1.75,1.75,0,0,1,.56-1.3,1,1,0,0,1,1.41.1c.14,1.15.25,2.41.3,3.77a44.8,44.8,0,0,1-.19,6.21l.38,0a53.41,53.41,0,0,0,.18-6.25c0-1.36-.14-2.64-.26-3.83a2.22,2.22,0,0,1-.15-1.05A2.19,2.19,0,0,1,330,30.15Z" fill="#4b4b4b"/><g mask="url(#mask-7)"><path d="M327.1,32a1.09,1.09,0,0,0-.56,1.25.79.79,0,0,0,1.09.62,1.14,1.14,0,0,0,.48-1.26A.77.77,0,0,0,327.1,32Z" fill="#fbf5bb"/></g><ellipse cx="327.33" cy="32.95" rx="0.34" ry="0.42" fill="#f6f1b9"/><path d="M351.15,19.62l-.22,0a.85.85,0,0,0,0,.27,1,1,0,0,0,0,.26.56.56,0,0,0-.56,0,1.18,1.18,0,0,0-.47.92l.2.13a1.09,1.09,0,0,1,.26-.72.42.42,0,0,1,.65.05c.06.65.11,1.35.14,2.11A31.22,31.22,0,0,1,351,26.1l.17,0a31.93,31.93,0,0,0,.08-3.48c0-.76-.06-1.48-.12-2.14a1.42,1.42,0,0,1-.06-.58A1.86,1.86,0,0,1,351.15,19.62Z" fill="#4b4b4b"/><g mask="url(#mask-8)"><path d="M349.82,20.65a.7.7,0,0,0-.26.7c.06.32.31.46.5.34a.7.7,0,0,0,.23-.7C350.23,20.7,350,20.56,349.82,20.65Z" fill="#fbf5bb"/></g><ellipse cx="349.93" cy="21.18" rx="0.15" ry="0.23" fill="#f6f1b9"/><path d="M359.09,15.26l-.23,0a1.3,1.3,0,0,0,0,.26,1.1,1.1,0,0,0,0,.27.56.56,0,0,0-.55,0,1.19,1.19,0,0,0-.48.93l.2.13a1.13,1.13,0,0,1,.26-.73.43.43,0,0,1,.65.06c.06.64.11,1.35.14,2.11a31.22,31.22,0,0,1-.09,3.46l.17,0a34.53,34.53,0,0,0,.09-3.48c0-.77-.06-1.48-.12-2.14a1.57,1.57,0,0,1-.07-.58A1,1,0,0,1,359.09,15.26Z" fill="#4b4b4b"/><g mask="url(#mask-9)"><path d="M357.75,16.29a.68.68,0,0,0-.25.7c.06.31.31.46.5.34a.71.71,0,0,0,.22-.7C358.16,16.33,357.94,16.2,357.75,16.29Z" fill="#fbf5bb"/></g><ellipse cx="357.86" cy="16.82" rx="0.15" ry="0.23" fill="#f6f1b9"/></g></g></g></svg>