<svg xmlns="http://www.w3.org/2000/svg" width="140.11" height="149.05" viewBox="0 0 140.11 149.05"><g id="レイヤー_2" data-name="レイヤー 2"><g id="上半身_画像" data-name="上半身 画像"><path d="M73.9,149c-2.41.08-37.13.85-51.21-20.9-1.23-1.89-3.92-10.29-9.31-27.09C9.62,89.3,7.74,83.44,5.82,75.83A261.22,261.22,0,0,1,0,44.9,33.57,33.57,0,0,1,24.19,27.47a124.82,124.82,0,0,1,25,6.46A124.3,124.3,0,0,1,68.6,43.16a150.46,150.46,0,0,1,44.34-15.49,137.23,137.23,0,0,1,13.92,7.88,71.69,71.69,0,0,1,12.57,9.8,80.77,80.77,0,0,1-.88,26.25c-2.43,12-6,14.75-15.56,37.85-8,19.25-6.84,20.44-10.94,25.08C100.07,148.1,80.56,148.79,73.9,149Z" fill="#77c1e0"/><path d="M89.51,18.61A4,4,0,0,1,90,21.54a4.14,4.14,0,0,1-2.43,2.75,14.7,14.7,0,0,1-2.84-2.89,15.23,15.23,0,0,1-2.19-4.21Z" fill="#c1c7ca"/><path d="M49.89,22.1a6.72,6.72,0,0,0-1.24-3.3,20.1,20.1,0,0,1,6.76-1.87,10,10,0,0,1-2.07,2.94A9.88,9.88,0,0,1,49.89,22.1Z" fill="#c1c7ca"/><path d="M73.29.09C78.12,1.35,80.4,3,81.43,5c2.16,4-.63,7.85,1.37,12.44,1,2.41,3.34,4.81,8,6.6a31.35,31.35,0,0,1-7.44,11.16,31.65,31.65,0,0,1-14.78,8A34.32,34.32,0,0,1,47.43,22.52a9.91,9.91,0,0,0,5.91-2.65,9.5,9.5,0,0,0,2.07-2.94c1-3.62.61-7.4.47-11.09C59.28-.18,67.15-.19,73.29.09Z" fill="#fed0b2"/><path d="M49.89,22.1C53,31,61.11,36.45,68.55,41,74,36.44,81.63,35.32,85.31,28.54,89,25.32,87.3,16,93.57,17.05c4.42.9,18.73,6.16,19.37,10.62C114.88,42.34,105.17,55.25,93,62.3,77.57,74,72.58,54.71,68.6,43.16,63,58.31,58.71,75,40.55,59.75,29.72,52.64,22.91,40.57,24.19,27.47c2.09-5.78,10.76-6.42,15.58-9.62a25.79,25.79,0,0,1,4.09-1.12c1.85-.34,2.79-.5,3.56,0s1.16,1.38,1.78,3A16.16,16.16,0,0,1,49.89,22.1Z" fill="#e3f5fe"/><path d="M94,78.09a21.65,21.65,0,0,0,3-2.21,23.24,23.24,0,0,0,2-2c.61.66,1.31,1.37,2.11,2.08a29.07,29.07,0,0,0,2.78,2.18c.75-.74,1.5-1.51,2.27-2.3s1.4-1.47,2.06-2.2a18.87,18.87,0,0,1,3,5.6,19.28,19.28,0,0,1,.92,4.75,9.46,9.46,0,0,1-.6,6.77c-5.17,10.78-30.94,7.38-25.33-8.14a19.44,19.44,0,0,1,2-5.49,19.1,19.1,0,0,1,2.7-3.75Z" fill="#fe7d74"/><rect x="91.78" y="81.73" width="14.29" height="10.31" fill="#fff"/></g></g></svg>