<svg xmlns="http://www.w3.org/2000/svg" width="117.06" height="37.53" viewBox="0 0 117.06 37.53"><g id="レイヤー_2" data-name="レイヤー 2"><g id="目_画像" data-name="目 画像"><path d="M92.32,37.29C75.64,33.43,81.6.1,99.67,5.48,114.76,11.25,109.86,40.4,92.32,37.29Z" fill="#9e7b81"/><path d="M21.26,37.29C3.41,35,5,1.49,24.56,5,39.22,9.15,38.59,38.68,21.26,37.29Z" fill="#9e7b81"/><path d="M116.61,17.48l.45,5.1C112,7.05,96.34-4.32,82,8.27c-.52-5,6.62-6.56,10.39-7.65a23.16,23.16,0,0,1,17.17,5.21A22.34,22.34,0,0,1,116.61,17.48Z" fill="#9e7b81"/><path d="M24.34.06A13.19,13.19,0,0,1,31.7,2.69a13,13,0,0,1,4,5.06C22.58-3.52,4.9,6.19.47,22.11-3,10.3,13.4-.92,24.34.06Z" fill="#9e7b81"/><path d="M98.11,27.09c7-7.83,7.82,5.26,1.76,7.45C94.34,37,90.66,23.93,98.11,27.09Z" fill="#f1889d"/><path d="M26.25,27.26c7.93-8.48,7.5,8,.11,7.74C21.49,35,20,24.26,26.25,27.26Z" fill="#f1889d"/></g></g></svg>