<svg xmlns="http://www.w3.org/2000/svg" width="190.77" height="190.19" viewBox="0 0 190.77 190.19"><g id="レイヤー_2" data-name="レイヤー 2"><g id="前髪_画像" data-name="前髪 画像"><path d="M122.34,59.82a140.69,140.69,0,0,0-13.71-12.13,81.9,81.9,0,0,1-32.42,54.16c-6.79,5.56-13.21,11.82-22,13.9-2.15-14,9.88-28.19,5.45-45.9h0A228,228,0,0,0,10.5,148.6c-4.64-10.43-15-37.77-6.94-70.32C14.61,33.92,53,9.81,75.28,2.91a68.4,68.4,0,0,1,35.25-1.1c36.76,7.29,56.21,39.33,61.5,48,25.51,42,25.61,103.52-3.56,129a50.9,50.9,0,0,1-4.57,3.55,156.24,156.24,0,0,0,5.61-59.35,154.26,154.26,0,0,0-8.15-36.31c.53,6.19.88,12.76,1,19.67A282.62,282.62,0,0,1,161,138.09a86.61,86.61,0,0,0-7.6-35.14c-3.21-7-6.71-12-13.35-21.41A157.3,157.3,0,0,0,122.34,59.82Z" fill="#fae79e"/><path d="M18.13,190.19a177.71,177.71,0,0,1-12-32A181.4,181.4,0,0,1,1.28,89.8c-.36,18.94,1,38.12,9.42,55.56a59,59,0,0,1,14-28.2,166.88,166.88,0,0,0-7.13,21.05c-1.85,6.94-3.57,13.38-4.07,21.12A75.09,75.09,0,0,0,18.13,190.19Z" fill="#fad69e"/><path d="M59.83,69.44c5.94,13.71-5.73,33.81-5.65,46.31,12.22-3.11,22.45-14.92,31.55-22.1a7.62,7.62,0,0,1,1.75-1.29c-12.83,15.23-32.62,29.21-48.25,36.35C41,108.35,50.64,87,59.83,69.44Z" fill="#fad69e"/><path d="M135.87,76.22c.57.62,1.38,1.51,2.32,2.6,5.1,5.92,16.71,19.38,21.15,38.46a75.65,75.65,0,0,1-1.82,39.57c-1.19-25.35-5.32-44.71-8.79-54.46a144.23,144.23,0,0,0-6.87-15.89C139.66,82.28,137.55,78.81,135.87,76.22Z" fill="#fad69e"/><path d="M172.87,167c1.21,5.41-2.11,9.73-3.08,11a16.47,16.47,0,0,1-7.36,5.35,115,115,0,0,0,5-15.77q.87-3.65,1.47-7.05A12.2,12.2,0,0,1,172.87,167Z" fill="#fad79e"/></g></g></svg>