<svg xmlns="http://www.w3.org/2000/svg" width="223.37" height="222.99" viewBox="0 0 223.37 222.99"><g id="レイヤー_2" data-name="レイヤー 2"><g id="顔_画像" data-name="顔 画像"><path d="M111.18,223c-21.61-3.3-44-8.43-61-23.25h0A92,92,0,0,1,32.32,172C23,149,25.5,127.59,27,114.76a147.77,147.77,0,0,1,3.73-19.84A89.44,89.44,0,0,1,47.45,59.68C52.28,53.54,66.16,35.88,89.12,31c8.46-1.79,15.56-1.29,26.27-.53,13.29.94,25.24,3.51,30.79,5.31,28.43,9.23,51.71,51.21,52,91.56.08,11,.31,41.51-23.21,67C150.32,221.09,117.66,222.78,111.18,223Z" fill="#fee0cc"/><path d="M194.21,126.91c.45-6,2.15-37-20.88-63.81C149,34.71,115.61,32.82,110.08,32.6,72.36,29.67,43.76,61.7,30.74,94.92c-9.15,32.44,1.52,76.8,19.4,104.83h0a35.39,35.39,0,0,0,4.8,8.36,35.85,35.85,0,0,0,5.45,5.65l-9.44-3.35a46.11,46.11,0,0,1-12.82-8c-2.2-2.93-6.25-8.33-11.39-15.16-8.72-11.6-10.15-13.46-11.88-16.39-5.48-9.28-7.2-17.69-8.64-25.06-4-20.42-1.29-37.62,2.7-61.73,1.31-7.87,2.64-14.31,3.59-18.63,47.83-88,150.16-86.77,197.28,1.09a127.6,127.6,0,0,1-16.94,140.14c2-8.16,2.14-10.2,1.78-10.32s-1.17,2.73-4,6.29a22.26,22.26,0,0,1-9.58,7.13,18.36,18.36,0,0,1-2.36.68,11.15,11.15,0,0,0,2.21-6.76,36.94,36.94,0,0,1-4.77,2.77,37.39,37.39,0,0,1-9.6,3.14,83.84,83.84,0,0,0,17.85-27c3-7.48,4.2-13.65,6.06-23.7A251,251,0,0,0,194.21,126.91Z" fill="#fae79e"/><path d="M161.08,181.63c12-1.27,22.09,9.56,5.47,12.73C149.31,198.14,137,183,161.08,181.63Z" fill="#febdc1"/><path d="M59.82,194.85c-5.9.29-19.71-2.95-12.77-10.13C60.82,174.4,90.14,190.91,59.82,194.85Z" fill="#febdc1"/><path d="M181.14,193.16a29.22,29.22,0,0,1-7.22,11.24,28.82,28.82,0,0,1-7.42,5.16c1.46-1.68,2.9-3.47,4.32-5.39a89.33,89.33,0,0,0,14.76-31.94c4.08-14.79,5.36-30.34,8.63-45.32A169.3,169.3,0,0,1,189,169.56,168.19,168.19,0,0,1,181.14,193.16Z" fill="#fad69e"/><path d="M63.72,112.62c1.87-6.68,13.67-4,18.53-2.53a1.07,1.07,0,0,1-.8,1.73C75.93,112,67.38,119.62,63.72,112.62Z" fill="#fad69e"/><path d="M147.67,108.55c4.46-.58,12.91,3.33,6.25,6.8-4.08,1.37-8-1.62-11.95-2.53C130.44,110.19,144.42,108.81,147.67,108.55Z" fill="#fad69e"/><path d="M12.32,65.6Q10.9,79.19,9.46,92.78A144.91,144.91,0,0,0,38.12,202.37l.1-3.81a73.94,73.94,0,0,0,7.64,6.67,72.79,72.79,0,0,0,14.52,8.52,67.51,67.51,0,0,1-9.47-3.39c-2.17-1-4.14-2-5.91-3h0l-4.72-2.88a12.61,12.61,0,0,0,.48,2.8A12.83,12.83,0,0,0,42,210.11c-6.87-2.75-11.51-9.29-15.71-15.06.16,7,1,9.73,1.87,10.89.1.13.46.6.37.69-.25.27-3.9-2.86-4.89-3.7A92,92,0,0,1,9.19,186.58C-1,170.85-.17,141.24.17,127.11.69,105.62,4.1,91.42,5.65,85.57A165.88,165.88,0,0,1,12.32,65.6Z" fill="#fad69e"/><path d="M216.94,162.18c.25.11-3.44,13.09-11.87,27.36a120.81,120.81,0,0,1-12.23,17.09c.4-1.43.77-3,1.09-4.63a63.64,63.64,0,0,0,.93-6.58,37.14,37.14,0,0,0,7.53-6.58c2.73-3.14,4.19-5.91,6.35-10.15C214.58,167.22,216.77,162.12,216.94,162.18Z" fill="#fad79f"/><path d="M183.53,207.78a6.81,6.81,0,0,1-3.72,2.46,6,6,0,0,1-1.15.17,7.62,7.62,0,0,0,1.54-2.93c.44-1.71-.06-2.53.67-3.83.42-.75.75-.77,1.8-1.9a15.69,15.69,0,0,0,2-2.61,16.26,16.26,0,0,1,.19,4.25A7.8,7.8,0,0,1,183.53,207.78Z" fill="#fad79f"/><path d="M76.07,111.09c-2.15.63-4.27,1.35-6.45,1.84a12.42,12.42,0,0,1-3.22,0c-.15,0-.42-.33-.39-.46s.2-.65.41-.73a19.76,19.76,0,0,1,3.47-1.12A13.05,13.05,0,0,1,76.07,111.09Z" fill="#fae79e"/><path d="M144.06,111c.66-.1,1.31-.24,2-.29,2.53-.19,5.06-.22,7.39,1,.3.16.48.57.71.87a6,6,0,0,1-.93.51c-1.82.58-3.51-.14-5.2-.61-1.33-.37-2.62-.89-3.94-1.35Z" fill="#fae79e"/></g></g></svg>