<svg xmlns="http://www.w3.org/2000/svg" width="175.74" height="67.83" viewBox="0 0 175.74 67.83"><g id="レイヤー_2" data-name="レイヤー 2"><g id="腕左_画像" data-name="腕左 画像"><path d="M5.28,26c6.87-8.91,18.39-10.29,28.9-10.21A32.14,32.14,0,0,1,39.9,29.27a32.88,32.88,0,0,1-3.34,20.51,21.07,21.07,0,0,1-9.31,2.09,22.48,22.48,0,0,1-12.87-4.6c-2.62-1.82-9.53-6.62-10.13-14.52A15.56,15.56,0,0,1,5.28,26Z" fill="#fee0cc"/><path d="M158.47,2.23c1.68.79,13.09,6.38,16.36,19.33.49,1.92,2.3,9.54-1.2,17.3-3,6.62-9.32,12.14-26.46,17.61-19.5,6.23-35.71,6.88-48,7.23-16.22.46-36.27.72-59.37.28a14.66,14.66,0,0,1-7.19-6.51c-1.8-3.65-1-7-.36-12.59,1.29-10.68-.22-9.68,1-17.45,1.19-7.47-.69-20,7.38-23.56,22.06-5.59,44.63,1.42,66.91-.15,11.39-.8,22.95-1,34.24-2.5a43.64,43.64,0,0,1,4.39-.8c2.92-.38,4.9-.64,7.3-.17A14.92,14.92,0,0,1,158.47,2.23Z" fill="#77c1e0"/><path d="M173.63,38.86c-4.14,12.4-20.32,16.69-34.14,20.35-14.89,3.95-25.6,2.85-40.28,4.49-18.45,2.06-36.84,4.88-55.45,3.69-14.1,2.76-13.75-8-11.68-18.5a12.94,12.94,0,0,0,1.59,6.47c1.2,2.09,5.94,8.83,38.42,7.78,17.83-.57,27.39-.88,40.51-5.12a119.29,119.29,0,0,0,38.75-21.45A121.57,121.57,0,0,0,170,17.39C172.6,22,176.41,30.53,173.63,38.86Z" fill="#68b3d2"/><path d="M5.28,26c1.41.37,1.38,1.77,1.83,2.74a23.08,23.08,0,0,0,6.8,8.31c1.28.51,5.13,2.08,2.19,3.3-3.52.1-3.31,4.76-1.72,6.92l.26,0a5.48,5.48,0,0,1,.51-3.55,9.67,9.67,0,0,0,5.41,4.91,8.22,8.22,0,0,0,2.61.39,8.31,8.31,0,0,0,9-1.48,28.24,28.24,0,0,1-.78,5.15c-5.32.46-10.55,1.63-15.26-1-1.94,1-4.31,1.56-5.7-.48C2,41.56-5.33,38,5.28,26Z" fill="#fed0b2"/></g></g></svg>