<svg xmlns="http://www.w3.org/2000/svg" width="94.8" height="86.9" viewBox="0 0 94.8 86.9"><g id="レイヤー_2" data-name="レイヤー 2"><g id="耳左_画像" data-name="耳左 画像"><path d="M35.31,67.47c1.35,4.51,2.27,8.33,2.86,11C35.1,73.78,31,67.28,26.35,59.39c-5.66-9.65-8.49-14.48-11-20-4.18-9.19-4.71-13-10.67-26.49C3,9.13,1.56,6.08.6,4.09c1,1.1,2.07,2.2,3.1,3.31h0S12.29,19,19,30.43A167.46,167.46,0,0,1,35.31,67.47Z" fill="#fad69f"/><path d="M25.66,48.54C20,34,11.64,20.72,3.69,7.39A67.37,67.37,0,0,1,27.83,29.21c14,21,11.27,43.36,10.34,49.27Z" fill="#fff"/><path d="M42.6,66.14a92.24,92.24,0,0,1-7.68-5.82c-6.66-5.59-7.57-10.1-13-13A20.33,20.33,0,0,0,12.17,45,5.76,5.76,0,0,1,17.72,48c1.17,2.6-.43,6.5-4.22,7.8,4.15-1.51,7.8.63,8.25,2.85.37,1.85-1.33,4.41-4.32,5.56,2.79.81,4.72,2.54,4.61,3.89-.12,1.55-3,3.35-7.09,2.91A43.13,43.13,0,0,0,42.6,66.14Z" fill="#fff"/><path d="M9.65.19A112.68,112.68,0,0,1,74.17,16,70,70,0,0,1,84,24.2q1.58,1.59,2.94,3.17c1,1.35,12.41,17.13,5.91,35.63-1,3-6.81,18.13-23.11,22.7-17.08,4.79-30.46-6.31-31.53-7.22-.27-1.25-.67-3.06-1.19-5.23-.44-1.87-4.83-20.17-9.55-31.69C24.54,34.51,18.16,21.8,3.69,7.39h0C2.41,5.42,0,4.36,0,1.66,3.13.57,6.46.61,9.65.19Z" fill="#fae79e"/></g></g></svg>