<svg xmlns="http://www.w3.org/2000/svg" width="80.37" height="224.49" viewBox="0 0 80.37 224.49"><g id="レイヤー_2" data-name="レイヤー 2"><g id="足左_画像" data-name="足左 画像"><path d="M56.21,126.22c2.6.32,6.11.86,6.11,1.47s-3.85,1.1-6.43,1.35C56,128.1,56.1,127.16,56.21,126.22Z" fill="#e0dede"/><path d="M44.92.13a15.71,15.71,0,0,1,7.69.92c24.78,11,4.89,102.66,4.22,122.89,0,1.75-.09,3.5-.13,5.25-1.08,1.07-8.92,8.59-20.81,7.52A26.91,26.91,0,0,1,17.08,126l.16-2.47c.81-15.53,1.49-28,1.92-35.81,0,0,4.46-80.82,17.93-86A27.62,27.62,0,0,1,44.92.13Z" fill="#fed0b2"/><path d="M78.13,189.53c-3.26-10-9-19.87-10.11-30.21,4.14-6.71-1-14.62-.53-21.92.29-10.66.06-11.45-10.66-13.46l0,2.39c2.07.4,4.61,1,4.58,1.42s-2.09.55-3.54.63c-3.36.18-9.47.32-20.36-.17-3.86-.17-6.31-.42-9.8-.79-3.92-.41-7.47-.89-10.59-1.38l.16-2.47c-3.73.85-8.84-1.18-10.55,3.17C1.92,137,5.25,148.4,3.7,159.16c-.76,1.8-1.53,3.61-2.3,5.41a141.77,141.77,0,0,0,3,25.48c1,4.72,2.19,9.09,3.45,13.11l4-3A3.54,3.54,0,0,1,14.3,203a3,3,0,0,1-.34,1.65c17.8,12.79,47.15,30.2,63.8,7C81.65,204.91,80.7,196.63,78.13,189.53Z" fill="#b2959b"/><path d="M21.53,213.86c-2.77-2.4-8.25-5-7.57-9.23,17.86,12.79,46.82,30.09,63.77,7.18C69,232.54,36.07,223.85,21.53,213.86Z" fill="#917a7f"/><path d="M70.64,190.43c-14.17-4.78-29.39-8.36-42.45,1.44-3.72-.6-14.85-10.82-15.95-14.41,6.22,1.74,10.67,9.14,18.08,6.7,13.29-3.47,29.12-1.82,40.51,5.87Z" fill="#917a7f"/><path d="M11.05,200.91l-3.16,2.25L1.26,201a55.68,55.68,0,0,1-.8-6.17c-.2-2.84-.07-4,0-9.93,0-4.29,0-6.44,0-7.9-.2-3.85-.33-5.29-.38-8.77a10,10,0,0,1,1.57-6.06c.49-.69,1.07-1.31,1.57-2a8.58,8.58,0,0,0,.56-1,1.21,1.21,0,0,1,.66.4l.07.09a40.47,40.47,0,0,0-1.38,5.12,44.5,44.5,0,0,0-.8,8,52.34,52.34,0,0,0,2,15.12,34.2,34.2,0,0,0,3.08,7.72A31.53,31.53,0,0,0,11.05,200.91Z" fill="#917a7f"/><path d="M12.3,160.9a5.73,5.73,0,0,1-2.54.46c-1.74-.09-3.9-1.05-4.21-2.51a2.33,2.33,0,0,1,.14-1.22c2-6.58-1.53-14.31,1.12-20.33,1.1-2.93.78-10.22,4.92-9.91,5.93,2.55,12.23,5,18.77,3.74,7.63.84,15.09,1.56,22.81.82,19.14-4.08,9.3-3.58,13.2,16.46,5.75,9.28-1.31,14.76-10.82,14-6.43-.8-11.58,3.83-17.9,4.14C28.84,166.78,21.61,158.85,12.3,160.9Z" fill="#fff"/></g></g></svg>