<svg xmlns="http://www.w3.org/2000/svg" width="288.2" height="92.26" viewBox="0 0 288.2 92.26"><g id="レイヤー_2" data-name="レイヤー 2"><g id="プリンー背景_画像" data-name="プリンー背景 画像"><path d="M220.8,92.26c-1-.49-2.09-.93-3.07-1.49a1.83,1.83,0,0,1-.23-3.09,6,6,0,0,1,2.18-1.1l-1.26,2.3c1.93,2.76,4.67,2.39,7.29,2.06a9.55,9.55,0,0,0,3.77-1.32c2-1.23,2.24-3.06.91-5a1.26,1.26,0,0,0-.76-.51c-1.51-.15-3-.25-4.56-.32a24.08,24.08,0,0,1-4.51-.19c-1.61-.38-1.77-1.69-.48-2.73a12.14,12.14,0,0,1,1.76-1.05A13.93,13.93,0,0,1,220,78.6a3.21,3.21,0,0,1,.19-4.63A7.19,7.19,0,0,1,226,72c1.06.09,2.2-.51,3.22-.32,1.28.23,2.14-.64,3.26-.84-.24,1.36-1.41,2.11-3.24,2.29.12.89.6,1.94.28,2.61a11.55,11.55,0,0,1-2.34,2.63,2,2,0,0,1-.62.36c-1.36.61-2.75,1.15-4.08,1.83-.46.24-.75.8-1.12,1.22a4.6,4.6,0,0,0,1.42.57c1,0,1.91-.2,2.87-.17a21.94,21.94,0,0,1,4.52.33,3.27,3.27,0,0,1,2.86,3,4.65,4.65,0,0,1-2,4,9.85,9.85,0,0,1-5.4,2.34,5.92,5.92,0,0,0-1.24.39Zm3.59-13.78a13.26,13.26,0,0,0,2.39-1,2.16,2.16,0,0,0,.37-3.37c-1.09-1.37-2.44-1.43-3.94-1-1.68.42-2.55,1.53-2.36,2.93S222.39,78.46,224.39,78.48Z" fill="#e86555"/><path d="M213.51,29.7c-4.29-.56-8.36-4.16-10-8.9A15.52,15.52,0,0,1,206,6.29L210.54.18l1.89,6.37L217.1,0,220,7.11,224.72.73l4,7.32c.18.37,3.5,7.57-.38,14.54a13.36,13.36,0,0,1-12.21,7.08A9.82,9.82,0,0,1,213.51,29.7Z" fill="#e86555"/><path d="M19.63,38.2l2-.54a6,6,0,0,1-1.36,6.46,20.81,20.81,0,0,1-2.55,1.79c-2,1.14-4,2.24-6,3.31a1.18,1.18,0,0,1-1.9-.75l.73-.13c-1-4.93-2.15-9.79-3.06-14.7-1.12-6-2.16-12-3-18.09a64.8,64.8,0,0,1-.36-7.77A1.73,1.73,0,0,1,4.5,6.59a25.41,25.41,0,0,1,9.62-5.45V5.39c.56-.3.87-.44,1.15-.62A24.07,24.07,0,0,1,27.77.63a58.5,58.5,0,0,1,14.53.93c5.81,1.28,8.15,6.23,5.44,11.52a16.53,16.53,0,0,1-2.07,3.2A50.75,50.75,0,0,1,23.6,31.37a10.47,10.47,0,0,1-3.4.47,1.37,1.37,0,0,1-1.36-2.11A8.22,8.22,0,0,1,20.73,27a25.34,25.34,0,0,1,8.14-4.72A12.84,12.84,0,0,1,30.23,22a9.32,9.32,0,0,0-1,1.69A9.57,9.57,0,0,0,29,25.6c.68,0,1.58.29,2,0,3.31-2.5,6.39-5.26,7.55-9.45,1.11-4-1.24-7.53-5.76-8.5a47.49,47.49,0,0,0-14.52-.82,22.33,22.33,0,0,0-3,.61c-.86.2-1.06.75-.92,1.6.89,5.4,1.7,10.82,2.65,16.21.68,3.94,1.52,7.85,2.3,11.77C19.4,37.37,19.51,37.74,19.63,38.2Z" fill="#89b0f9"/><path d="M122.42,31.68c-1.14,1.87-2.18,3.49-3.14,5.17-.83,1.45-1.62,2.93-2.33,4.44a8.35,8.35,0,0,1-3.47,3.86c-2.08,1.17-4.17,2.34-6.34,3.33-1.33.61-1.59.37-1.46-1.07.41-4.42.89-8.83,1.36-13.24.16-1.55.32-3.1.59-4.64a2.76,2.76,0,0,1,.79-1.54,24.74,24.74,0,0,1,8.76-5,5.71,5.71,0,0,1,.84-.12c-.44,2.93-.87,5.74-1.36,8.94l1.6-1.24a32,32,0,0,1,10.41-5.6c2.66-.76,3.75-.19,4.26,2.53.47,2.47.65,5,1,7.48a16.41,16.41,0,0,0,.75,3.26c.51,1.44,1.78,1.64,2.9.6a26.86,26.86,0,0,1,8.76-5.28,13.69,13.69,0,0,1,1.49-.3,7.84,7.84,0,0,1-.7,1.13c-4.37,4.75-9.34,8.67-15.61,10.58a21.23,21.23,0,0,1-4.81.5,2,2,0,0,1-2.15-1.73c-.36-1.47-.6-3-.83-4.47-.33-2.13-.59-4.27-.91-6.4A6.61,6.61,0,0,0,122.42,31.68Z" fill="#89b0f9"/><path d="M153.61,41.42c-.4-3.72,1.21-6.63,3.61-9a28,28,0,0,1,11.49-7c3.51-1.08,6.66,0,9.4,2.41,1.62,1.43,1.83,3.11.74,5.28A24.92,24.92,0,0,1,171.42,42c-3.4,2.53-6.88,4.91-11,5.8s-6.59-1.15-6.77-5.67C153.6,41.88,153.61,41.65,153.61,41.42Zm11.27-8.26c-.67,3.84.2,6.5,2.15,7.31C169.42,37.22,168.62,34.5,164.88,33.16Z" fill="#89b0f9"/><path d="M63.77,31.39A14.78,14.78,0,0,0,64,33.65c.62,2.43,1.24,4.86,2,7.26.19.59.22,1-.22,1.35a26.16,26.16,0,0,1-8.29,4.9c-.6.23-1.36.38-1.6-.63-.7-2.9-1.44-5.79-2.11-8.7a1.42,1.42,0,0,1,.31-1.17,23.33,23.33,0,0,1,9.13-5.27A2.55,2.55,0,0,1,63.77,31.39Z" fill="#89b0f9"/><path d="M65,16.38a7.5,7.5,0,0,0,.09,1.24,4.39,4.39,0,0,0,.68,2c.93,1,.69,1.58-.27,2.15Q61.9,23.89,58.23,26a1.65,1.65,0,0,1-2.51-.69c-1-1.66-1.29-3.17.46-4.48C58.84,18.85,62.71,16.74,65,16.38Z" fill="#89b0f9"/><path d="M207.65,73.2c2.18-2,4.58-2,7.13-1.23a1.89,1.89,0,0,1,1.42,2c.12,2.46.13,4.93.25,7.39.06,1.33-1.15,1.08-1.92,1.9-.07-.66-.15-1-.15-1.35,0-2.21.2-4.42.07-6.61s-1.56-2.81-3.77-2.26l-.11.05c-3.92,1-3.22.95-3.14,4.51a24.9,24.9,0,0,1,0,4.23c-.07.49-1,.85-1.6,1.28l-.33-.24c.16-1.95.39-3.89.44-5.84a28.87,28.87,0,0,0-.33-3.58c0-.39-.2-1,0-1.14a6.3,6.3,0,0,1,1.55-.72c.12.4.23.8.35,1.19C207.54,72.85,207.57,73,207.65,73.2Z" fill="#e86555"/><path d="M240.73,73.19c2.19-1.93,4.58-2,7.13-1.23a1.85,1.85,0,0,1,1.42,1.84c.14,2.53.2,5.08.25,7.62,0,1.24-1.13,1.08-1.87,1.54-.11-.27-.27-.47-.24-.62.5-2.07.07-4.17.17-6.26.12-2.59-1.29-3.71-3.81-3.09l-.11.05c-3.95,1.06-3.22,1-3.14,4.5a26,26,0,0,1,0,4.23c-.07.5-1,.87-1.6,1.3l-.33-.25c.16-1.94.4-3.88.44-5.83a30.74,30.74,0,0,0-.37-3.69c0-.36-.15-.9,0-1a7.73,7.73,0,0,1,1.56-.74c.11.4.23.8.35,1.19C240.63,72.84,240.66,73,240.73,73.19Z" fill="#e86555"/><path d="M202.8,75.81H194c-.9,0-1.71.41-1.64,1.31a5.89,5.89,0,0,0,1,2.46c2.08,3.34,6.63,3,8.79.61a3.47,3.47,0,0,1,.7-.48l.4.32c-.39.6-.66,1.54-1.2,1.76-2.58,1-5.25,1.58-8,.61-3.33-1.17-4.25-5-1.88-7.71a9.5,9.5,0,0,1,6.07-3.23c1.46-.23,3.72,1.62,4.33,3.48C202.64,75.14,202.67,75.33,202.8,75.81Zm-9.09-1.24h6.6c-.48-1.12-1.15-1.89-2.11-1.95A4.87,4.87,0,0,0,193.71,74.57Z" fill="#e86555"/><path d="M263.5,75.82c-3,0-5.85-.06-8.67,0-1.74,0-1.88.52-1.44,2.2a5.72,5.72,0,0,0,2.44,3.31c1.73,1.2,5.29.73,6.74-.83.27-.29.59-.54,1-.92a1.73,1.73,0,0,1-.82,2.2c-2.58,1-5.24,1.58-8,.64a4.65,4.65,0,0,1-2-7.61A9.41,9.41,0,0,1,259,71.46c1.32-.19,3.47,1.5,4.12,3.12C263.22,74.87,263.3,75.17,263.5,75.82Zm-2.41-1.22c-.78-1.25-1.44-2.15-2.66-2-1.43.16-3,.34-4,2Z" fill="#e86555"/><path d="M277.57,80c-.36.59-.59,1.52-1.12,1.73a11.2,11.2,0,0,1-8,.67,4.65,4.65,0,0,1-2.08-7.59,9.33,9.33,0,0,1,6.23-3.38c1.75-.25,4,2,4.39,4.18-2,0-4,0-6,0a23.27,23.27,0,0,0-3.33.29c-.92.14-1.07.82-.78,1.72A5.94,5.94,0,0,0,269.1,81a4.3,4.3,0,0,0,3.29.95c1.68-.29,3.33-.51,4.38-2.08.06-.1.28-.09.43-.14Zm-2.89-5.45c-.62-1.22-1.29-2-2.49-2a4.19,4.19,0,0,0-3.86,2Z" fill="#e86555"/><path d="M91.87,26.6l-3.81,6.45-6.85-.44a12.54,12.54,0,0,1,10.66-6Z" fill="#89b0f9"/><path d="M279.45,82.8c.2-1.72.44-3.43.58-5.15,0-.43-.33-.87-.39-1.33-.14-1.08-.2-2.18-.31-3.27s.8-1.22,1.44-1.45c.18-.06.65.69,1.14,1.24,1.65-.87,3.58-1.75,5.78-1.14.21.06.36.37.51.54-.65,1.26-1.59,1-2.62.8-3.09-.72-5,1.31-4.25,4.32a14.21,14.21,0,0,1,.06,3.33c0,.1-.18.25-.15.31,1,1.94-1,1.28-1.47,1.93Z" fill="#e86555"/><path d="M95.42,39.72c-3.31,2.77-6.49,5.2-10.89,5.81l4.22-6.82Z" fill="#89b0f9"/><path d="M233.05,82.91c.28-1.43.62-2.68.75-4a14.27,14.27,0,0,0-.21-2.67c-.09-1-.19-1.9-.33-2.84s.8-2,1.63-1.9a.8.8,0,0,1,.47.61c-.5,2.87-.16,5.76-.09,8.64C235.29,82,234.7,82.62,233.05,82.91Z" fill="#e86555"/><path d="M233.13,67.28c.75-.81,1.47-1.63,2.25-2.4.09-.09.59,0,.68.19a.74.74,0,0,1-.14.7c-.79.65-1.62,1.23-2.44,1.84Z" fill="#e86555"/><path d="M213.84,44.4a24,24,0,0,0,1.37-14.51l2.42,0a32,32,0,0,1,.29,6.39c0,.32,0,.92-.12,1.66a33.85,33.85,0,0,1-1.41,6.72c11.69-7.32,14.81-8.3,15.31-7.65.65.84-2.81,4.9-6.31,7.47a24.24,24.24,0,0,1-10.56,4.33,30,30,0,0,1-9.75-4.61c-4.23-3.06-7.85-7.43-7.24-8.2s4.32,1.43,8.24,3.61C209.43,41.46,212.08,43.19,213.84,44.4Z" fill="#b0d34b"/><g id="レイヤー_2-2" data-name="レイヤー 2"><line y1="53.66" x2="288.2" y2="53.66" fill="#e86555" stroke="#e86555" stroke-miterlimit="10"/></g></g></g></svg>