<svg xmlns="http://www.w3.org/2000/svg" width="169.69" height="66.12" viewBox="0 0 169.69 66.12"><g id="レイヤー_2" data-name="レイヤー 2"><g id="腕右_画像" data-name="腕右 画像"><path d="M9.56,6C17.66.93,28,5.65,37.1,4.75c17.09.35,34.18.8,51-2.52,55.79-7.6,41.44,3.22,49.59,48.35a10.35,10.35,0,0,1-.77,6.24,11,11,0,0,1-5,4.8c-9.7,5.07-41.17,2.38-44,2.15-1.4-.12-6.78-.56-12.33-.83-5.39-.27-5.24-.1-9.11-.31-4.93-.26-9-.74-12-1.15C47.63,62.54,27.22,64.82,11.6,53c-2.83-2.13-7.06-5.4-9.5-11.19-4.28-10.19,0-21,1.85-25.61A46.89,46.89,0,0,1,9.56,6Z" fill="#77c1e0"/><path d="M11.6,53A29.09,29.09,0,0,1,2.1,41.84C-3.11,30.19,2.89,18.25,4,16.23a74.21,74.21,0,0,0,17.34,27.1c4.64,4.6,14,13.87,28.53,17.47,7.49,1.85,15.75,1.92,24.84,2.07,4.49.07,8.77,0,12.84-.24,11.32-.4,20.09-.39,26-.3,8.4.12,15,.44,17.34-3.34,1.07-1.72,1.95-5.4,5.65-7.74a9.65,9.65,0,0,1,1.23-.67c3.78,18.93-8.5,13.61-21.6,15.54q-10.28,0-21.27-.33c-6.68-.22-10.08-.45-22.65-1.21C46.64,63,40.52,62.79,30.44,60.68,23.07,59.14,17.27,57.38,11.6,53Z" fill="#68b3d2"/><path d="M131.64,8c5.05.1,10.12-.06,15.14.37A24.5,24.5,0,0,1,162.72,16a5.45,5.45,0,0,1,.58.84,7.1,7.1,0,0,0-.92,1.22,36.9,36.9,0,0,1-1.92,4.18c-1.91,2.9-3.8,5.87-7.33,7.17a1.73,1.73,0,0,0-.73,1.46c0,.31.88.76,1.34.74a1.91,1.91,0,0,1,1.67.77,4.48,4.48,0,0,1-.17,6,21.24,21.24,0,0,0-.09-2.31,4.43,4.43,0,0,0-.61-1.18,5.94,5.94,0,0,0-1.09.78,5.65,5.65,0,0,0-.52,1.11,6.62,6.62,0,0,1-4.35,3.47q-2.79.68-5.63,1.09a5.08,5.08,0,0,1-4.58-1.17,18.44,18.44,0,0,0-2.62-1.76c-.33-3.79-.6-7.6-1-11.38-.48-4.5-1-9-1.67-13.46A53.29,53.29,0,0,0,131.64,8Z" fill="#fee0cc"/><path d="M135.75,38.41a18.44,18.44,0,0,1,2.62,1.76A5.08,5.08,0,0,0,143,41.34q2.84-.42,5.63-1.09a6.62,6.62,0,0,0,4.35-3.47,5.65,5.65,0,0,1,.52-1.11,5.94,5.94,0,0,1,1.09-.78,4.43,4.43,0,0,1,.61,1.18,21.24,21.24,0,0,1,.09,2.31,4.48,4.48,0,0,0,.17-6,1.91,1.91,0,0,0-1.67-.77c-.46,0-1.3-.43-1.34-.74a1.73,1.73,0,0,1,.73-1.46c3.53-1.3,5.42-4.27,7.33-7.17A36.9,36.9,0,0,0,162.38,18a7.1,7.1,0,0,1,.92-1.22c1.07,1.28,2.19,2.52,3.18,3.85.87,1.18,1.61,2.45,2.39,3.7a5.61,5.61,0,0,1-.2,6.12,39.84,39.84,0,0,1-3.27,4.32c-1.82,2.3-3.66,4.58-5.49,6.88-1.69,2.13-3.18,2.5-5.61,1.28a1.06,1.06,0,0,0-1.4.19,8.51,8.51,0,0,1-6.1,1.9c-2.72-.19-5.45-.24-8.17-.36-.17,0-.34,0-.51-.07l-1.84-2Z" fill="#fed0b2"/></g></g></svg>