<svg xmlns="http://www.w3.org/2000/svg" width="90.25" height="83.44" viewBox="0 0 90.25 83.44"><g id="レイヤー_2" data-name="レイヤー 2"><g id="耳右_画像" data-name="耳右 画像"><path d="M76,34.93c-5.41,11.54-8.11,17.31-13.36,23.2A55.69,55.69,0,0,1,44.06,71.6a129.16,129.16,0,0,0,17.27-24C66,39,68.57,32.06,75.44,21.93c3.39-5,7.64-10.79,7.64-10.79C86,7.23,88.43,4,90.25,1.65c-1.49,3.45-3.76,8.69-6.5,15.1C77.93,30.38,77.72,31.15,76,34.93Z" fill="#fad69f"/><path d="M75.29,24.07a142.85,142.85,0,0,0-6.85,13.26h0A112.37,112.37,0,0,1,59.5,53.25,111.93,111.93,0,0,1,44.06,71.6c1.86-3.25,4.11-7.32,6.55-12.08,3.52-6.85,5.9-12.12,6.49-13.44,4.78-10.62,3.76-10.39,6.76-16.59,3.28-6.8,7.63-15.6,16.72-22.37a45.47,45.47,0,0,1,9.67-5.47,120.57,120.57,0,0,0-9.59,13.19C79,17.44,77.58,20,76.29,22.43,75.85,23.14,75.5,23.72,75.29,24.07Z" fill="#fff"/><path d="M42.93,65.34a33.59,33.59,0,0,0,7.68-5.82c7.17-7.3,7.36-14.39,13.24-16.64,1.69-.65,4.35-1.09,8.31.26a13.64,13.64,0,0,0-7.16,4,13.47,13.47,0,0,0-3.09,5.68A12.82,12.82,0,0,1,66,50.41a13,13,0,0,1,6.49-.65A7.34,7.34,0,0,0,65.65,55a7.46,7.46,0,0,0,5.2,8.77c-4-.47-7.18-.3-7.46.69s2.55,3,6.81,4.83a35.1,35.1,0,0,1-27.27-3.9Z" fill="#fff"/><path d="M71,0c5-.06,9.68.34,9.68.34,3.22.32,6.42.8,9.61,1.3A42.41,42.41,0,0,0,76.31,15.37c-11.42,17-17.13,25.56-21.72,37.32-3.5,8.94-2.82,9.91-5.68,14.34-1.66,2.59-11.13,17.32-24.42,16.36-14.08-1-21-18.79-21.93-21.17-6-15.48.28-29.68,1.76-32.81A72.37,72.37,0,0,1,18.23,15.12,66.79,66.79,0,0,1,29.58,8S45,.31,71,0ZM85.64,6.73l0,.13C85.68,6.82,85.69,6.78,85.64,6.73Z" fill="#fae79e"/></g></g></svg>