<svg xmlns="http://www.w3.org/2000/svg" width="78.74" height="223.07" viewBox="0 0 78.74 223.07"><g id="レイヤー_2" data-name="レイヤー 2"><g id="足右_画像" data-name="足右 画像"><path d="M60.65,125.46c1.5.24,3-.19,4.46-.18-2.47,1.5-4.89,3.1-8,2.83C58.52,127.42,60.66,127.44,60.65,125.46Z" fill="#e0dede"/><path d="M29.86.19c25.92-2.93,23.89,29.42,26.5,47.05,2.21,25.26,4.69,50.58,5.31,75.93l.18,4a18.35,18.35,0,0,1-3,3.15c-8.15,6.71-19.61,4.31-22.5,3.62-4.57-.37-10.84-1.62-13.3-6.13a8.67,8.67,0,0,1-1-3.14C16.15,74,7.44,2.71,29.86.19Z" fill="#fed0b2"/><path d="M76,149.21c.09-6.78-3.25-13-3.51-19.73a7.94,7.94,0,0,0-3.23-5.65,8.2,8.2,0,0,0-7.6-.65l.09,2.35,1.11-.07c.76,0,1.5-.11,2.24-.18-7.12,5.44-16.26,2-24.33,1.47-5.44-1.66-18.93,6.76-18.73-2.11-6.23.2-11-.67-10,7.43.47,4.41-2.59,8.29-1.48,12.7.49,5.75,2.83,11.34,1.38,17C8.36,173.92-1.86,185.24.29,198.5c17.42,37.43,49.54,22.55,67.94-5.15a2.88,2.88,0,0,1,3.06-3.47c2.42-3.39,4.9-6.74,7.37-10.09C77.12,169.42,74,159.65,76,149.21ZM46.59,188.43c.15.31.24.5.35.71-11.07-1.73-23.47-9.53-34.4-3.23-.91.56-1.28-.12-1.17-.87,5.71-6.72,17.2-7.69,24.9-3.8,7.48,4.16,12.86,6.28,20.65,1.39.09.15.18.3.26.46C54.26,186,51.56,189.22,46.59,188.43Z" fill="#b2959b"/><path d="M74,151.66c-.37,2.74-.3,4.76-1.8,6.11-4.31,3.9-15.37-2.39-22.38,1.89-1.94.31-4.9.81-8.5,1.59-2.07.45-3,.9-4.92,1.2a28.35,28.35,0,0,1-6.81.24,44.22,44.22,0,0,1-15-4.31,32.94,32.94,0,0,0-.13-6.43,32.65,32.65,0,0,0-2.4-9c.18-2.66.94-3.86,1.5-6.33a21.55,21.55,0,0,0,.42-6.27c.13-1.08-.36-2.91.6-3.59a7.73,7.73,0,0,1,2.24,0c3.34.45,5.09,2.94,6.6,4,4,2.84,10.87-1.79,13.8-1.81,10.85-.07,22.12,4.81,31.72-2.54,1,3.19,1.8,5.85,2.32,7.73C74.47,145.77,74.33,149.32,74,151.66Z" fill="#fff"/><path d="M68.23,193.34c1.86,6.25-16.4,25.4-22.72,26.75C27.89,227.83,1.43,220.46.3,198.5,17.72,236,49.86,221,68.23,193.34Z" fill="#917a7f"/><path d="M57.19,183.09c-2.93,2.86-5.62,6.13-10.6,5.34l.35.71c-11.06-1.73-23.47-9.53-34.4-3.24-.86.57-1.32-.11-1.17-.86,5.71-6.72,17.21-7.69,24.9-3.8,7.46,4.16,12.9,6.27,20.65,1.39Z" fill="#917a7f"/><path d="M78.66,179.79c-.08,2.68.61,5.69-1,8-1.43,2-4.77,5.95-6.37,2C73.71,186.48,76.19,183.14,78.66,179.79Z" fill="#927a7f"/></g></g></svg>