<svg xmlns="http://www.w3.org/2000/svg" width="28.36" height="144.57" viewBox="0 0 28.36 144.57"><g id="レイヤー_2" data-name="レイヤー 2"><g id="ツインテ左_画像" data-name="ツインテ左 画像"><path d="M1,23.11C1.7,15.35,4.18,4.81,11.45,0c11.4,13.16,17,36.15,8.15,51.29a22.28,22.28,0,0,1-8.23-2.84C2.12,42.94,1.18,32.11.93,29.19A33,33,0,0,1,1,23.11Z" fill="#fae79e"/><path d="M4.53,69.31a31.59,31.59,0,0,1,1.35-6.73,51.44,51.44,0,0,1,2.94-6.24,8.12,8.12,0,0,1,3.52-4.11,8.49,8.49,0,0,1,8.73.61C30.33,63,30.25,80.62,23.72,92.15c-2.64.38-8.08.72-12.61-2.54C3.38,84.06,4.29,72.38,4.53,69.31Z" fill="#fae79e"/><path d="M22.67,141A16.78,16.78,0,0,1,13,136.79c-6.56-5.93-8.74-17.6-5.35-29.28.11-.65,1.25-6.44,6.08-8.91A9.53,9.53,0,0,1,20.69,98a46.79,46.79,0,0,1,6.11,20.87A47.68,47.68,0,0,1,22.67,141Z" fill="#fae79e"/><path d="M22.57,138.38a4.45,4.45,0,0,1,.54,2.1,4.84,4.84,0,0,1-.45,2A5.6,5.6,0,0,1,21,144.57a24.26,24.26,0,0,0-3.6-4.3C15,138,13.93,138,11.88,136a18.68,18.68,0,0,1-4.26-6.54,23.23,23.23,0,0,1-1.5-8.23,37,37,0,0,1,.29-6.34c.2-1.63.46-3,.68-4,.1.72.26,1.72.52,2.91a40.81,40.81,0,0,0,3.77,10.3A53.73,53.73,0,0,0,22.57,138.38Z" fill="#fad69e"/><path d="M19.6,51.29a.69.69,0,0,0-.29.49c0,.7,1.7,1,1.76,1.49s-.81.95-4.33,1.83a18.16,18.16,0,0,1-4.45,1.13,19.32,19.32,0,0,1-3.47.12C6.55,54.17,7.57,51.56,7.2,49,.93,41.55-1.59,32.2,1,23.11A51.33,51.33,0,0,0,11.7,43.66,56.23,56.23,0,0,0,19.6,51.29Z" fill="#fad69e"/><path d="M21.06,97.89c-2.2.94-4.12,2.44-6.66,2.3a2.91,2.91,0,0,0-1.28.39,3.57,3.57,0,0,0-1.6,2.54,12,12,0,0,0-.38-7.42C10,93,8.46,92.47,6.71,88.64a20.79,20.79,0,0,1-1.47-4.59,33.83,33.83,0,0,1-.71-14.74A39.26,39.26,0,0,0,6,75a36.77,36.77,0,0,0,4.58,9.16,35.52,35.52,0,0,0,3.25,4,6.4,6.4,0,0,0,3.28.91,6.15,6.15,0,0,0,2.83-.71,5.12,5.12,0,0,0,2.6-1.86c.9-1.35.73-2.84.93-2.83s.47,2,.45,4.31a31.68,31.68,0,0,1-.37,4.65C22.78,94.32,20.53,95.86,21.06,97.89Z" fill="#fad69e"/></g></g></svg>