<svg xmlns="http://www.w3.org/2000/svg" width="277.74" height="226.37" viewBox="0 0 277.74 226.37"><g id="レイヤー_2" data-name="レイヤー 2"><g id="下半身_画像" data-name="下半身 画像"><path d="M138.92.1a82.87,82.87,0,0,1,45.43,16.61c3.07,5.55,7.74,14.14,13.22,24.79,16.55,32.18,13.52,30.87,20.9,42.33,9.28,14.41,15.24,18.29,33.93,44.53,1.77,2.5,3.51,5,5.56,8.06a277.86,277.86,0,0,1,17.5,30.3c1,2,1.77,3.63,2.28,4.69-.55,1.7-3.4,9.89-11.68,13.62a20.45,20.45,0,0,1-8.6,1.77,70.25,70.25,0,0,1-75.15,28,90.26,90.26,0,0,1-87.53-.36,72.18,72.18,0,0,1-74.44-28A29.05,29.05,0,0,1,0,169.5a407.35,407.35,0,0,1,21.81-36.87c10.12-15.42,16.73-23.25,24.65-34.08,14.6-20,22-29.92,25-36.47C76.83,50.46,77.3,44.48,85,29.17A194.87,194.87,0,0,1,96.42,9.54,82.58,82.58,0,0,1,138.92.1Z" fill="#77c1e0"/><path d="M277.74,172a22.65,22.65,0,0,1-14.08,13.89,85.59,85.59,0,0,0-3-45C266.86,150.91,273.31,161.25,277.74,172Z" fill="#68b3d2"/><path d="M117.86,223a117.7,117.7,0,0,1-23.08-8.58A76.5,76.5,0,0,1,61,214c-6-1.47-23.66-6-36.7-21.62a57.19,57.19,0,0,1-4.72-6.49c-1.55-.08-9.78-.61-15.36-7.37a20,20,0,0,1-4.18-9c6.13-11.57,13.34-24,21.81-36.87C30,120.14,38.29,108.93,46.25,99a233.63,233.63,0,0,0-8.54,27.77c-5.24,21.81-8.94,38.06-3.08,56.12,2.21,6.81,5.16,15.94,13.92,22.48,13.33,9.95,34.51,9.55,46.56-.64A28.87,28.87,0,0,0,100,199.3a32.49,32.49,0,0,0,11,17.38c5.78,4.54,11.49,5.48,18.31,6.6a66.89,66.89,0,0,0,36.78-4.44,63.8,63.8,0,0,0,14.92-9.17,80.41,80.41,0,0,0,22.76,1.92c9.77-.58,33.47-2,43.55-18.31,5.44-8.81,4.69-18.35,3.83-29.53a85.24,85.24,0,0,0-8.77-31.41A200.56,200.56,0,0,1,253,159.15,199.14,199.14,0,0,1,259.43,186a72.56,72.56,0,0,1-77.12,28.81,52.11,52.11,0,0,1-7.7,5.24s-.9.5-1.82,1C170.53,222.14,149.61,231.13,117.86,223Z" fill="#68b3d2"/></g></g></svg>